<svg width="1344" height="501" viewBox="0 0 1344 501" fill="none" xmlns="http://www.w3.org/2000/svg">
<g style="mix-blend-mode:hard-light" opacity="0.7">
<path d="M-220.749 11.2979H-263.249V47.4629M-220.749 11.2979V47.4629M-220.749 11.2979H-178.248M-220.749 47.4629H-263.249M-220.749 47.4629V83.6279M-220.749 47.4629H-178.248M-263.249 47.4629V83.6279M-220.749 83.6279H-263.249M-220.749 83.6279V119.793M-220.749 83.6279H-178.248M-263.249 83.6279V119.793M-220.749 119.793H-263.249M-220.749 119.793V155.958M-220.749 119.793H-178.248M-263.249 119.793V155.958M-220.749 155.958H-263.249M-220.749 155.958V192.123M-220.749 155.958H-178.248M-263.249 155.958V192.123M-220.749 192.123H-263.249M-220.749 192.123V228.288M-220.749 192.123H-178.248M-263.249 192.123V228.288M-220.749 228.288H-263.249M-220.749 228.288V264.453M-220.749 228.288H-178.248M-263.249 228.288V264.453M-220.749 264.453H-263.249M-220.749 264.453V300.618M-220.749 264.453H-178.248M-263.249 264.453V300.618M-220.749 300.618H-263.249M-220.749 300.618V336.783M-220.749 300.618H-178.248M-263.249 300.618V336.783M-220.749 336.783H-263.249M-220.749 336.783V372.948M-220.749 336.783H-178.248M-263.249 336.783V372.948M-220.749 372.948H-263.249M-220.749 372.948V409.113M-220.749 372.948H-178.248M-263.249 372.948V409.113M-220.749 409.113H-263.249M-220.749 409.113V445.278M-220.749 409.113H-178.248M-263.249 409.113V445.278M-220.749 445.278H-263.249M-220.749 445.278V481.443M-220.749 445.278H-178.248M-263.249 445.278V481.443M-220.749 481.443H-263.249M-220.749 481.443V517.608M-220.749 481.443H-178.248M-263.249 481.443V517.608M-220.749 517.608H-263.249M-220.749 517.608V553.773M-220.749 517.608H-178.248M-263.249 517.608V553.773M-220.749 553.773H-263.249M-220.749 553.773V589.938M-220.749 553.773H-178.248M-263.249 553.773V589.938M-220.749 589.938H-263.249M-220.749 589.938V626.103M-220.749 589.938H-178.248M-263.249 589.938V626.103M-220.749 626.103H-263.249M-220.749 626.103V662.268M-220.749 626.103H-178.248M-263.249 626.103V662.268M-220.749 662.268H-263.249M-220.749 662.268V698.433M-220.749 662.268H-178.248M-263.249 662.268V698.433M-220.749 698.433H-263.249M-220.749 698.433V734.598M-220.749 698.433H-178.248M-263.249 698.433V734.598H-220.749M-220.749 734.598H-178.248M-178.248 11.2979V47.4629M-178.248 11.2979H-135.747M-178.248 47.4629V83.6279M-178.248 47.4629H-135.747M-178.248 83.6279V119.793M-178.248 83.6279H-135.747M-178.248 119.793V155.958M-178.248 119.793H-135.747M-178.248 155.958V192.123M-178.248 155.958H-135.747M-178.248 192.123V228.288M-178.248 192.123H-135.747M-178.248 228.288V264.453M-178.248 228.288H-135.747M-178.248 264.453V300.618M-178.248 264.453H-135.747M-178.248 300.618V336.783M-178.248 300.618H-135.747M-178.248 336.783V372.948M-178.248 336.783H-135.747M-178.248 372.948V409.113M-178.248 372.948H-135.747M-178.248 409.113V445.278M-178.248 409.113H-135.747M-178.248 445.278V481.443M-178.248 445.278H-135.747M-178.248 481.443V517.608M-178.248 481.443H-135.747M-178.248 517.608V553.773M-178.248 517.608H-135.747M-178.248 553.773V589.938M-178.248 553.773H-135.747M-178.248 589.938V626.103M-178.248 589.938H-135.747M-178.248 626.103V662.268M-178.248 626.103H-135.747M-178.248 662.268V698.433M-178.248 662.268H-135.747M-178.248 698.433V734.598M-178.248 698.433H-135.747M-178.248 734.598H-135.747M-135.747 11.2979V47.4629M-135.747 11.2979H-93.2465M-135.747 47.4629V83.6279M-135.747 47.4629H-93.2465M-135.747 83.6279V119.793M-135.747 83.6279H-93.2465M-135.747 119.793V155.958M-135.747 119.793H-93.2465M-135.747 155.958V192.123M-135.747 155.958H-93.2465M-135.747 192.123V228.288M-135.747 192.123H-93.2465M-135.747 228.288V264.453M-135.747 228.288H-93.2465M-135.747 264.453V300.618M-135.747 264.453H-93.2465M-135.747 300.618V336.783M-135.747 300.618H-93.2465M-135.747 336.783V372.948M-135.747 336.783H-93.2465M-135.747 372.948V409.113M-135.747 372.948H-93.2465M-135.747 409.113V445.278M-135.747 409.113H-93.2465M-135.747 445.278V481.443M-135.747 445.278H-93.2465M-135.747 481.443V517.608M-135.747 481.443H-93.2465M-135.747 517.608V553.773M-135.747 517.608H-93.2465M-135.747 553.773V589.938M-135.747 553.773H-93.2465M-135.747 589.938V626.103M-135.747 589.938H-93.2465M-135.747 626.103V662.268M-135.747 626.103H-93.2465M-135.747 662.268V698.433M-135.747 662.268H-93.2465M-135.747 698.433V734.598M-135.747 698.433H-93.2465M-135.747 734.598H-93.2465M-93.2465 11.2979V47.4629M-93.2465 11.2979H-50.7458M-93.2465 47.4629V83.6279M-93.2465 47.4629H-50.7458M-93.2465 83.6279V119.793M-93.2465 83.6279H-50.7458M-93.2465 119.793V155.958M-93.2465 119.793H-50.7458M-93.2465 155.958V192.123M-93.2465 155.958H-50.7458M-93.2465 192.123V228.288M-93.2465 192.123H-50.7458M-93.2465 228.288V264.453M-93.2465 228.288H-50.7458M-93.2465 264.453V300.618M-93.2465 264.453H-50.7458M-93.2465 300.618V336.783M-93.2465 300.618H-50.7458M-93.2465 336.783V372.948M-93.2465 336.783H-50.7458M-93.2465 372.948V409.113M-93.2465 372.948H-50.7458M-93.2465 409.113V445.278M-93.2465 409.113H-50.7458M-93.2465 445.278V481.443M-93.2465 445.278H-50.7458M-93.2465 481.443V517.608M-93.2465 481.443H-50.7458M-93.2465 517.608V553.773M-93.2465 517.608H-50.7458M-93.2465 553.773V589.938M-93.2465 553.773H-50.7458M-93.2465 589.938V626.103M-93.2465 589.938H-50.7458M-93.2465 626.103V662.268M-93.2465 626.103H-50.7458M-93.2465 662.268V698.433M-93.2465 662.268H-50.7458M-93.2465 698.433V734.598M-93.2465 698.433H-50.7458M-93.2465 734.598H-50.7458M-50.7458 11.2979V47.4629M-50.7458 11.2979H-8.24514M-50.7458 47.4629V83.6279M-50.7458 47.4629H-8.24514M-50.7458 83.6279V119.793M-50.7458 83.6279H-8.24514M-50.7458 119.793V155.958M-50.7458 119.793H-8.24514M-50.7458 155.958V192.123M-50.7458 155.958H-8.24514M-50.7458 192.123V228.288M-50.7458 192.123H-8.24514M-50.7458 228.288V264.453M-50.7458 228.288H-8.24514M-50.7458 264.453V300.618M-50.7458 264.453H-8.24514M-50.7458 300.618V336.783M-50.7458 300.618H-8.24514M-50.7458 336.783V372.948M-50.7458 336.783H-8.24514M-50.7458 372.948V409.113M-50.7458 372.948H-8.24514M-50.7458 409.113V445.278M-50.7458 409.113H-8.24514M-50.7458 445.278V481.443M-50.7458 445.278H-8.24514M-50.7458 481.443V517.608M-50.7458 481.443H-8.24514M-50.7458 517.608V553.773M-50.7458 517.608H-8.24514M-50.7458 553.773V589.938M-50.7458 553.773H-8.24514M-50.7458 589.938V626.103M-50.7458 589.938H-8.24514M-50.7458 626.103V662.268M-50.7458 626.103H-8.24514M-50.7458 662.268V698.433M-50.7458 662.268H-8.24514M-50.7458 698.433V734.598M-50.7458 698.433H-8.24514M-50.7458 734.598H-8.24514M-8.24514 11.2979V47.4629M-8.24514 11.2979H34.2555M-8.24514 47.4629V83.6279M-8.24514 47.4629H34.2555M-8.24514 83.6279V119.793M-8.24514 83.6279H34.2555M-8.24514 119.793V155.958M-8.24514 119.793H34.2555M-8.24514 155.958V192.123M-8.24514 155.958H34.2555M-8.24514 192.123V228.288M-8.24514 192.123H34.2555M-8.24514 228.288V264.453M-8.24514 228.288H34.2555M-8.24514 264.453V300.618M-8.24514 264.453H34.2555M-8.24514 300.618V336.783M-8.24514 300.618H34.2555M-8.24514 336.783V372.948M-8.24514 336.783H34.2555M-8.24514 372.948V409.113M-8.24514 372.948H34.2555M-8.24514 409.113V445.278M-8.24514 409.113H34.2555M-8.24514 445.278V481.443M-8.24514 445.278H34.2555M-8.24514 481.443V517.608M-8.24514 481.443H34.2555M-8.24514 517.608V553.773M-8.24514 517.608H34.2555M-8.24514 553.773V589.938M-8.24514 553.773H34.2555M-8.24514 589.938V626.103M-8.24514 589.938H34.2555M-8.24514 626.103V662.268M-8.24514 626.103H34.2555M-8.24514 662.268V698.433M-8.24514 662.268H34.2555M-8.24514 698.433V734.598M-8.24514 698.433H34.2555M-8.24514 734.598H34.2555M34.2555 11.2979V47.4629M34.2555 11.2979H76.7562M34.2555 47.4629V83.6279M34.2555 47.4629H76.7562M34.2555 83.6279V119.793M34.2555 83.6279H76.7562M34.2555 119.793V155.958M34.2555 119.793H76.7562M34.2555 155.958V192.123M34.2555 155.958H76.7562M34.2555 192.123V228.288M34.2555 192.123H76.7562M34.2555 228.288V264.453M34.2555 228.288H76.7562M34.2555 264.453V300.618M34.2555 264.453H76.7562M34.2555 300.618V336.783M34.2555 300.618H76.7562M34.2555 336.783V372.948M34.2555 336.783H76.7562M34.2555 372.948V409.113M34.2555 372.948H76.7562M34.2555 409.113V445.278M34.2555 409.113H76.7562M34.2555 445.278V481.443M34.2555 445.278H76.7562M34.2555 481.443V517.608M34.2555 481.443H76.7562M34.2555 517.608V553.773M34.2555 517.608H76.7562M34.2555 553.773V589.938M34.2555 553.773H76.7562M34.2555 589.938V626.103M34.2555 589.938H76.7562M34.2555 626.103V662.268M34.2555 626.103H76.7562M34.2555 662.268V698.433M34.2555 662.268H76.7562M34.2555 698.433V734.598M34.2555 698.433H76.7562M34.2555 734.598H76.7562M76.7562 11.2979V47.4629M76.7562 11.2979H119.257M76.7562 47.4629V83.6279M76.7562 47.4629H119.257M76.7562 83.6279V119.793M76.7562 83.6279H119.257M76.7562 119.793V155.958M76.7562 119.793H119.257M76.7562 155.958V192.123M76.7562 155.958H119.257M76.7562 192.123V228.288M76.7562 192.123H119.257M76.7562 228.288V264.453M76.7562 228.288H119.257M76.7562 264.453V300.618M76.7562 264.453H119.257M76.7562 300.618V336.783M76.7562 300.618H119.257M76.7562 336.783V372.948M76.7562 336.783H119.257M76.7562 372.948V409.113M76.7562 372.948H119.257M76.7562 409.113V445.278M76.7562 409.113H119.257M76.7562 445.278V481.443M76.7562 445.278H119.257M76.7562 481.443V517.608M76.7562 481.443H119.257M76.7562 517.608V553.773M76.7562 517.608H119.257M76.7562 553.773V589.938M76.7562 553.773H119.257M76.7562 589.938V626.103M76.7562 589.938H119.257M76.7562 626.103V662.268M76.7562 626.103H119.257M76.7562 662.268V698.433M76.7562 662.268H119.257M76.7562 698.433V734.598M76.7562 698.433H119.257M76.7562 734.598H119.257M119.257 11.2979V47.4629M119.257 11.2979H161.758M119.257 47.4629V83.6279M119.257 47.4629H161.758M119.257 83.6279V119.793M119.257 83.6279H161.758M119.257 119.793V155.958M119.257 119.793H161.758M119.257 155.958V192.123M119.257 155.958H161.758M119.257 192.123V228.288M119.257 192.123H161.758M119.257 228.288V264.453M119.257 228.288H161.758M119.257 264.453V300.618M119.257 264.453H161.758M119.257 300.618V336.783M119.257 300.618H161.758M119.257 336.783V372.948M119.257 336.783H161.758M119.257 372.948V409.113M119.257 372.948H161.758M119.257 409.113V445.278M119.257 409.113H161.758M119.257 445.278V481.443M119.257 445.278H161.758M119.257 481.443V517.608M119.257 481.443H161.758M119.257 517.608V553.773M119.257 517.608H161.758M119.257 553.773V589.938M119.257 553.773H161.758M119.257 589.938V626.103M119.257 589.938H161.758M119.257 626.103V662.268M119.257 626.103H161.758M119.257 662.268V698.433M119.257 662.268H161.758M119.257 698.433V734.598M119.257 698.433H161.758M119.257 734.598H161.758M161.758 11.2979V47.4629M161.758 11.2979H204.258M161.758 47.4629V83.6279M161.758 47.4629H204.258M161.758 83.6279V119.793M161.758 83.6279H204.258M161.758 119.793V155.958M161.758 119.793H204.258M161.758 155.958V192.123M161.758 155.958H204.258M161.758 192.123V228.288M161.758 192.123H204.258M161.758 228.288V264.453M161.758 228.288H204.258M161.758 264.453V300.618M161.758 264.453H204.258M161.758 300.618V336.783M161.758 300.618H204.258M161.758 336.783V372.948M161.758 336.783H204.258M161.758 372.948V409.113M161.758 372.948H204.258M161.758 409.113V445.278M161.758 409.113H204.258M161.758 445.278V481.443M161.758 445.278H204.258M161.758 481.443V517.608M161.758 481.443H204.258M161.758 517.608V553.773M161.758 517.608H204.258M161.758 553.773V589.938M161.758 553.773H204.258M161.758 589.938V626.103M161.758 589.938H204.258M161.758 626.103V662.268M161.758 626.103H204.258M161.758 662.268V698.433M161.758 662.268H204.258M161.758 698.433V734.598M161.758 698.433H204.258M161.758 734.598H204.258M204.258 11.2979V47.4629M204.258 11.2979H246.759M204.258 47.4629V83.6279M204.258 47.4629H246.759M204.258 83.6279V119.793M204.258 83.6279H246.759M204.258 119.793V155.958M204.258 119.793H246.759M204.258 155.958V192.123M204.258 155.958H246.759M204.258 192.123V228.288M204.258 192.123H246.759M204.258 228.288V264.453M204.258 228.288H246.759M204.258 264.453V300.618M204.258 264.453H246.759M204.258 300.618V336.783M204.258 300.618H246.759M204.258 336.783V372.948M204.258 336.783H246.759M204.258 372.948V409.113M204.258 372.948H246.759M204.258 409.113V445.278M204.258 409.113H246.759M204.258 445.278V481.443M204.258 445.278H246.759M204.258 481.443V517.608M204.258 481.443H246.759M204.258 517.608V553.773M204.258 517.608H246.759M204.258 553.773V589.938M204.258 553.773H246.759M204.258 589.938V626.103M204.258 589.938H246.759M204.258 626.103V662.268M204.258 626.103H246.759M204.258 662.268V698.433M204.258 662.268H246.759M204.258 698.433V734.598M204.258 698.433H246.759M204.258 734.598H246.759M246.759 11.2979V47.4629M246.759 11.2979H289.26M246.759 47.4629V83.6279M246.759 47.4629H289.26M246.759 83.6279V119.793M246.759 83.6279H289.26M246.759 119.793V155.958M246.759 119.793H289.26M246.759 155.958V192.123M246.759 155.958H289.26M246.759 192.123V228.288M246.759 192.123H289.26M246.759 228.288V264.453M246.759 228.288H289.26M246.759 264.453V300.618M246.759 264.453H289.26M246.759 300.618V336.783M246.759 300.618H289.26M246.759 336.783V372.948M246.759 336.783H289.26M246.759 372.948V409.113M246.759 372.948H289.26M246.759 409.113V445.278M246.759 409.113H289.26M246.759 445.278V481.443M246.759 445.278H289.26M246.759 481.443V517.608M246.759 481.443H289.26M246.759 517.608V553.773M246.759 517.608H289.26M246.759 553.773V589.938M246.759 553.773H289.26M246.759 589.938V626.103M246.759 589.938H289.26M246.759 626.103V662.268M246.759 626.103H289.26M246.759 662.268V698.433M246.759 662.268H289.26M246.759 698.433V734.598M246.759 698.433H289.26M246.759 734.598H289.26M289.26 11.2979V47.4629M289.26 11.2979H331.76M289.26 47.4629V83.6279M289.26 47.4629H331.76M289.26 83.6279V119.793M289.26 83.6279H331.76M289.26 119.793V155.958M289.26 119.793H331.76M289.26 155.958V192.123M289.26 155.958H331.76M289.26 192.123V228.288M289.26 192.123H331.76M289.26 228.288V264.453M289.26 228.288H331.76M289.26 264.453V300.618M289.26 264.453H331.76M289.26 300.618V336.783M289.26 300.618H331.76M289.26 336.783V372.948M289.26 336.783H331.76M289.26 372.948V409.113M289.26 372.948H331.76M289.26 409.113V445.278M289.26 409.113H331.76M289.26 445.278V481.443M289.26 445.278H331.76M289.26 481.443V517.608M289.26 481.443H331.76M289.26 517.608V553.773M289.26 517.608H331.76M289.26 553.773V589.938M289.26 553.773H331.76M289.26 589.938V626.103M289.26 589.938H331.76M289.26 626.103V662.268M289.26 626.103H331.76M289.26 662.268V698.433M289.26 662.268H331.76M289.26 698.433V734.598M289.26 698.433H331.76M289.26 734.598H331.76M331.76 11.2979V47.4629M331.76 11.2979H374.261M331.76 47.4629V83.6279M331.76 47.4629H374.261M331.76 83.6279V119.793M331.76 83.6279H374.261M331.76 119.793V155.958M331.76 119.793H374.261M331.76 155.958V192.123M331.76 155.958H374.261M331.76 192.123V228.288M331.76 192.123H374.261M331.76 228.288V264.453M331.76 228.288H374.261M331.76 264.453V300.618M331.76 264.453H374.261M331.76 300.618V336.783M331.76 300.618H374.261M331.76 336.783V372.948M331.76 336.783H374.261M331.76 372.948V409.113M331.76 372.948H374.261M331.76 409.113V445.278M331.76 409.113H374.261M331.76 445.278V481.443M331.76 445.278H374.261M331.76 481.443V517.608M331.76 481.443H374.261M331.76 517.608V553.773M331.76 517.608H374.261M331.76 553.773V589.938M331.76 553.773H374.261M331.76 589.938V626.103M331.76 589.938H374.261M331.76 626.103V662.268M331.76 626.103H374.261M331.76 662.268V698.433M331.76 662.268H374.261M331.76 698.433V734.598M331.76 698.433H374.261M331.76 734.598H374.261M374.261 11.2979V47.4629M374.261 11.2979H416.762M374.261 47.4629V83.6279M374.261 47.4629H416.762M374.261 83.6279V119.793M374.261 83.6279H416.762M374.261 119.793V155.958M374.261 119.793H416.762M374.261 155.958V192.123M374.261 155.958H416.762M374.261 192.123V228.288M374.261 192.123H416.762M374.261 228.288V264.453M374.261 228.288H416.762M374.261 264.453V300.618M374.261 264.453H416.762M374.261 300.618V336.783M374.261 300.618H416.762M374.261 336.783V372.948M374.261 336.783H416.762M374.261 372.948V409.113M374.261 372.948H416.762M374.261 409.113V445.278M374.261 409.113H416.762M374.261 445.278V481.443M374.261 445.278H416.762M374.261 481.443V517.608M374.261 481.443H416.762M374.261 517.608V553.773M374.261 517.608H416.762M374.261 553.773V589.938M374.261 553.773H416.762M374.261 589.938V626.103M374.261 589.938H416.762M374.261 626.103V662.268M374.261 626.103H416.762M374.261 662.268V698.433M374.261 662.268H416.762M374.261 698.433V734.598M374.261 698.433H416.762M374.261 734.598H416.762M416.762 11.2979V47.4629M416.762 11.2979H459.262M416.762 47.4629V83.6279M416.762 47.4629H459.262M416.762 83.6279V119.793M416.762 83.6279H459.262M416.762 119.793V155.958M416.762 119.793H459.262M416.762 155.958V192.123M416.762 155.958H459.262M416.762 192.123V228.288M416.762 192.123H459.262M416.762 228.288V264.453M416.762 228.288H459.262M416.762 264.453V300.618M416.762 264.453H459.262M416.762 300.618V336.783M416.762 300.618H459.262M416.762 336.783V372.948M416.762 336.783H459.262M416.762 372.948V409.113M416.762 372.948H459.262M416.762 409.113V445.278M416.762 409.113H459.262M416.762 445.278V481.443M416.762 445.278H459.262M416.762 481.443V517.608M416.762 481.443H459.262M416.762 517.608V553.773M416.762 517.608H459.262M416.762 553.773V589.938M416.762 553.773H459.262M416.762 589.938V626.103M416.762 589.938H459.262M416.762 626.103V662.268M416.762 626.103H459.262M416.762 662.268V698.433M416.762 662.268H459.262M416.762 698.433V734.598M416.762 698.433H459.262M416.762 734.598H459.262M459.262 11.2979V47.4629M459.262 11.2979H501.763M459.262 47.4629V83.6279M459.262 47.4629H501.763M459.262 83.6279V119.793M459.262 83.6279H501.763M459.262 119.793V155.958M459.262 119.793H501.763M459.262 155.958V192.123M459.262 155.958H501.763M459.262 192.123V228.288M459.262 192.123H501.763M459.262 228.288V264.453M459.262 228.288H501.763M459.262 264.453V300.618M459.262 264.453H501.763M459.262 300.618V336.783M459.262 300.618H501.763M459.262 336.783V372.948M459.262 336.783H501.763M459.262 372.948V409.113M459.262 372.948H501.763M459.262 409.113V445.278M459.262 409.113H501.763M459.262 445.278V481.443M459.262 445.278H501.763M459.262 481.443V517.608M459.262 481.443H501.763M459.262 517.608V553.773M459.262 517.608H501.763M459.262 553.773V589.938M459.262 553.773H501.763M459.262 589.938V626.103M459.262 589.938H501.763M459.262 626.103V662.268M459.262 626.103H501.763M459.262 662.268V698.433M459.262 662.268H501.763M459.262 698.433V734.598M459.262 698.433H501.763M459.262 734.598H501.763M501.763 11.2979V47.4629M501.763 11.2979H544.264M501.763 47.4629V83.6279M501.763 47.4629H544.264M501.763 83.6279V119.793M501.763 83.6279H544.264M501.763 119.793V155.958M501.763 119.793H544.264M501.763 155.958V192.123M501.763 155.958H544.264M501.763 192.123V228.288M501.763 192.123H544.264M501.763 228.288V264.453M501.763 228.288H544.264M501.763 264.453V300.618M501.763 264.453H544.264M501.763 300.618V336.783M501.763 300.618H544.264M501.763 336.783V372.948M501.763 336.783H544.264M501.763 372.948V409.113M501.763 372.948H544.264M501.763 409.113V445.278M501.763 409.113H544.264M501.763 445.278V481.443M501.763 445.278H544.264M501.763 481.443V517.608M501.763 481.443H544.264M501.763 517.608V553.773M501.763 517.608H544.264M501.763 553.773V589.938M501.763 553.773H544.264M501.763 589.938V626.103M501.763 589.938H544.264M501.763 626.103V662.268M501.763 626.103H544.264M501.763 662.268V698.433M501.763 662.268H544.264M501.763 698.433V734.598M501.763 698.433H544.264M501.763 734.598H544.264M544.264 11.2979V47.4629M544.264 11.2979H586.764M544.264 47.4629V83.6279M544.264 47.4629H586.764M544.264 83.6279V119.793M544.264 83.6279H586.764M544.264 119.793V155.958M544.264 119.793H586.764M544.264 155.958V192.123M544.264 155.958H586.764M544.264 192.123V228.288M544.264 192.123H586.764M544.264 228.288V264.453M544.264 228.288H586.764M544.264 264.453V300.618M544.264 264.453H586.764M544.264 300.618V336.783M544.264 300.618H586.764M544.264 336.783V372.948M544.264 336.783H586.764M544.264 372.948V409.113M544.264 372.948H586.764M544.264 409.113V445.278M544.264 409.113H586.764M544.264 445.278V481.443M544.264 445.278H586.764M544.264 481.443V517.608M544.264 481.443H586.764M544.264 517.608V553.773M544.264 517.608H586.764M544.264 553.773V589.938M544.264 553.773H586.764M544.264 589.938V626.103M544.264 589.938H586.764M544.264 626.103V662.268M544.264 626.103H586.764M544.264 662.268V698.433M544.264 662.268H586.764M544.264 698.433V734.598M544.264 698.433H586.764M544.264 734.598H586.764M586.764 11.2979V47.4629M586.764 11.2979H629.265M586.764 47.4629V83.6279M586.764 47.4629H629.265M586.764 83.6279V119.793M586.764 83.6279H629.265M586.764 119.793V155.958M586.764 119.793H629.265M586.764 155.958V192.123M586.764 155.958H629.265M586.764 192.123V228.288M586.764 192.123H629.265M586.764 228.288V264.453M586.764 228.288H629.265M586.764 264.453V300.618M586.764 264.453H629.265M586.764 300.618V336.783M586.764 300.618H629.265M586.764 336.783V372.948M586.764 336.783H629.265M586.764 372.948V409.113M586.764 372.948H629.265M586.764 409.113V445.278M586.764 409.113H629.265M586.764 445.278V481.443M586.764 445.278H629.265M586.764 481.443V517.608M586.764 481.443H629.265M586.764 517.608V553.773M586.764 517.608H629.265M586.764 553.773V589.938M586.764 553.773H629.265M586.764 589.938V626.103M586.764 589.938H629.265M586.764 626.103V662.268M586.764 626.103H629.265M586.764 662.268V698.433M586.764 662.268H629.265M586.764 698.433V734.598M586.764 698.433H629.265M586.764 734.598H629.265M629.265 11.2979V47.4629M629.265 11.2979H671.766M629.265 47.4629V83.6279M629.265 47.4629H671.766M629.265 83.6279V119.793M629.265 83.6279H671.766M629.265 119.793V155.958M629.265 119.793H671.766M629.265 155.958V192.123M629.265 155.958H671.766M629.265 192.123V228.288M629.265 192.123H671.766M629.265 228.288V264.453M629.265 228.288H671.766M629.265 264.453V300.618M629.265 264.453H671.766M629.265 300.618V336.783M629.265 300.618H671.766M629.265 336.783V372.948M629.265 336.783H671.766M629.265 372.948V409.113M629.265 372.948H671.766M629.265 409.113V445.278M629.265 409.113H671.766M629.265 445.278V481.443M629.265 445.278H671.766M629.265 481.443V517.608M629.265 481.443H671.766M629.265 517.608V553.773M629.265 517.608H671.766M629.265 553.773V589.938M629.265 553.773H671.766M629.265 589.938V626.103M629.265 589.938H671.766M629.265 626.103V662.268M629.265 626.103H671.766M629.265 662.268V698.433M629.265 662.268H671.766M629.265 698.433V734.598M629.265 698.433H671.766M629.265 734.598H671.766M671.766 11.2979V47.4629M671.766 11.2979H714.266M671.766 47.4629V83.6279M671.766 47.4629H714.266M671.766 83.6279V119.793M671.766 83.6279H714.266M671.766 119.793V155.958M671.766 119.793H714.266M671.766 155.958V192.123M671.766 155.958H714.266M671.766 192.123V228.288M671.766 192.123H714.266M671.766 228.288V264.453M671.766 228.288H714.266M671.766 264.453V300.618M671.766 264.453H714.266M671.766 300.618V336.783M671.766 300.618H714.266M671.766 336.783V372.948M671.766 336.783H714.266M671.766 372.948V409.113M671.766 372.948H714.266M671.766 409.113V445.278M671.766 409.113H714.266M671.766 445.278V481.443M671.766 445.278H714.266M671.766 481.443V517.608M671.766 481.443H714.266M671.766 517.608V553.773M671.766 517.608H714.266M671.766 553.773V589.938M671.766 553.773H714.266M671.766 589.938V626.103M671.766 589.938H714.266M671.766 626.103V662.268M671.766 626.103H714.266M671.766 662.268V698.433M671.766 662.268H714.266M671.766 698.433V734.598M671.766 698.433H714.266M671.766 734.598H714.266M714.266 11.2979V47.4629M714.266 11.2979H756.767M714.266 47.4629V83.6279M714.266 47.4629H756.767M714.266 83.6279V119.793M714.266 83.6279H756.767M714.266 119.793V155.958M714.266 119.793H756.767M714.266 155.958V192.123M714.266 155.958H756.767M714.266 192.123V228.288M714.266 192.123H756.767M714.266 228.288V264.453M714.266 228.288H756.767M714.266 264.453V300.618M714.266 264.453H756.767M714.266 300.618V336.783M714.266 300.618H756.767M714.266 336.783V372.948M714.266 336.783H756.767M714.266 372.948V409.113M714.266 372.948H756.767M714.266 409.113V445.278M714.266 409.113H756.767M714.266 445.278V481.443M714.266 445.278H756.767M714.266 481.443V517.608M714.266 481.443H756.767M714.266 517.608V553.773M714.266 517.608H756.767M714.266 553.773V589.938M714.266 553.773H756.767M714.266 589.938V626.103M714.266 589.938H756.767M714.266 626.103V662.268M714.266 626.103H756.767M714.266 662.268V698.433M714.266 662.268H756.767M714.266 698.433V734.598M714.266 698.433H756.767M714.266 734.598H756.767M756.767 11.2979V47.4629M756.767 11.2979H799.268M756.767 47.4629V83.6279M756.767 47.4629H799.268M756.767 83.6279V119.793M756.767 83.6279H799.268M756.767 119.793V155.958M756.767 119.793H799.268M756.767 155.958V192.123M756.767 155.958H799.268M756.767 192.123V228.288M756.767 192.123H799.268M756.767 228.288V264.453M756.767 228.288H799.268M756.767 264.453V300.618M756.767 264.453H799.268M756.767 300.618V336.783M756.767 300.618H799.268M756.767 336.783V372.948M756.767 336.783H799.268M756.767 372.948V409.113M756.767 372.948H799.268M756.767 409.113V445.278M756.767 409.113H799.268M756.767 445.278V481.443M756.767 445.278H799.268M756.767 481.443V517.608M756.767 481.443H799.268M756.767 517.608V553.773M756.767 517.608H799.268M756.767 553.773V589.938M756.767 553.773H799.268M756.767 589.938V626.103M756.767 589.938H799.268M756.767 626.103V662.268M756.767 626.103H799.268M756.767 662.268V698.433M756.767 662.268H799.268M756.767 698.433V734.598M756.767 698.433H799.268M756.767 734.598H799.268M799.268 11.2979V47.4629M799.268 11.2979H841.768M799.268 47.4629V83.6279M799.268 47.4629H841.768M799.268 83.6279V119.793M799.268 83.6279H841.768M799.268 119.793V155.958M799.268 119.793H841.768M799.268 155.958V192.123M799.268 155.958H841.768M799.268 192.123V228.288M799.268 192.123H841.768M799.268 228.288V264.453M799.268 228.288H841.768M799.268 264.453V300.618M799.268 264.453H841.768M799.268 300.618V336.783M799.268 300.618H841.768M799.268 336.783V372.948M799.268 336.783H841.768M799.268 372.948V409.113M799.268 372.948H841.768M799.268 409.113V445.278M799.268 409.113H841.768M799.268 445.278V481.443M799.268 445.278H841.768M799.268 481.443V517.608M799.268 481.443H841.768M799.268 517.608V553.773M799.268 517.608H841.768M799.268 553.773V589.938M799.268 553.773H841.768M799.268 589.938V626.103M799.268 589.938H841.768M799.268 626.103V662.268M799.268 626.103H841.768M799.268 662.268V698.433M799.268 662.268H841.768M799.268 698.433V734.598M799.268 698.433H841.768M799.268 734.598H841.768M841.768 11.2979V47.4629M841.768 11.2979H884.269M841.768 47.4629V83.6279M841.768 47.4629H884.269M841.768 83.6279V119.793M841.768 83.6279H884.269M841.768 119.793V155.958M841.768 119.793H884.269M841.768 155.958V192.123M841.768 155.958H884.269M841.768 192.123V228.288M841.768 192.123H884.269M841.768 228.288V264.453M841.768 228.288H884.269M841.768 264.453V300.618M841.768 264.453H884.269M841.768 300.618V336.783M841.768 300.618H884.269M841.768 336.783V372.948M841.768 336.783H884.269M841.768 372.948V409.113M841.768 372.948H884.269M841.768 409.113V445.278M841.768 409.113H884.269M841.768 445.278V481.443M841.768 445.278H884.269M841.768 481.443V517.608M841.768 481.443H884.269M841.768 517.608V553.773M841.768 517.608H884.269M841.768 553.773V589.938M841.768 553.773H884.269M841.768 589.938V626.103M841.768 589.938H884.269M841.768 626.103V662.268M841.768 626.103H884.269M841.768 662.268V698.433M841.768 662.268H884.269M841.768 698.433V734.598M841.768 698.433H884.269M841.768 734.598H884.269M884.269 11.2979V47.4629M884.269 11.2979H926.77M884.269 47.4629V83.6279M884.269 47.4629H926.77M884.269 83.6279V119.793M884.269 83.6279H926.77M884.269 119.793V155.958M884.269 119.793H926.77M884.269 155.958V192.123M884.269 155.958H926.77M884.269 192.123V228.288M884.269 192.123H926.77M884.269 228.288V264.453M884.269 228.288H926.77M884.269 264.453V300.618M884.269 264.453H926.77M884.269 300.618V336.783M884.269 300.618H926.77M884.269 336.783V372.948M884.269 336.783H926.77M884.269 372.948V409.113M884.269 372.948H926.77M884.269 409.113V445.278M884.269 409.113H926.77M884.269 445.278V481.443M884.269 445.278H926.77M884.269 481.443V517.608M884.269 481.443H926.77M884.269 517.608V553.773M884.269 517.608H926.77M884.269 553.773V589.938M884.269 553.773H926.77M884.269 589.938V626.103M884.269 589.938H926.77M884.269 626.103V662.268M884.269 626.103H926.77M884.269 662.268V698.433M884.269 662.268H926.77M884.269 698.433V734.598M884.269 698.433H926.77M884.269 734.598H926.77M926.77 11.2979V47.4629M926.77 11.2979H969.27M926.77 47.4629V83.6279M926.77 47.4629H969.27M926.77 83.6279V119.793M926.77 83.6279H969.27M926.77 119.793V155.958M926.77 119.793H969.27M926.77 155.958V192.123M926.77 155.958H969.27M926.77 192.123V228.288M926.77 192.123H969.27M926.77 228.288V264.453M926.77 228.288H969.27M926.77 264.453V300.618M926.77 264.453H969.27M926.77 300.618V336.783M926.77 300.618H969.27M926.77 336.783V372.948M926.77 336.783H969.27M926.77 372.948V409.113M926.77 372.948H969.27M926.77 409.113V445.278M926.77 409.113H969.27M926.77 445.278V481.443M926.77 445.278H969.27M926.77 481.443V517.608M926.77 481.443H969.27M926.77 517.608V553.773M926.77 517.608H969.27M926.77 553.773V589.938M926.77 553.773H969.27M926.77 589.938V626.103M926.77 589.938H969.27M926.77 626.103V662.268M926.77 626.103H969.27M926.77 662.268V698.433M926.77 662.268H969.27M926.77 698.433V734.598M926.77 698.433H969.27M926.77 734.598H969.27M969.27 11.2979V47.4629M969.27 11.2979H1011.77M969.27 47.4629V83.6279M969.27 47.4629H1011.77M969.27 83.6279V119.793M969.27 83.6279H1011.77M969.27 119.793V155.958M969.27 119.793H1011.77M969.27 155.958V192.123M969.27 155.958H1011.77M969.27 192.123V228.288M969.27 192.123H1011.77M969.27 228.288V264.453M969.27 228.288H1011.77M969.27 264.453V300.618M969.27 264.453H1011.77M969.27 300.618V336.783M969.27 300.618H1011.77M969.27 336.783V372.948M969.27 336.783H1011.77M969.27 372.948V409.113M969.27 372.948H1011.77M969.27 409.113V445.278M969.27 409.113H1011.77M969.27 445.278V481.443M969.27 445.278H1011.77M969.27 481.443V517.608M969.27 481.443H1011.77M969.27 517.608V553.773M969.27 517.608H1011.77M969.27 553.773V589.938M969.27 553.773H1011.77M969.27 589.938V626.103M969.27 589.938H1011.77M969.27 626.103V662.268M969.27 626.103H1011.77M969.27 662.268V698.433M969.27 662.268H1011.77M969.27 698.433V734.598M969.27 698.433H1011.77M969.27 734.598H1011.77M1011.77 11.2979V47.4629M1011.77 11.2979H1054.27M1011.77 47.4629V83.6279M1011.77 47.4629H1054.27M1011.77 83.6279V119.793M1011.77 83.6279H1054.27M1011.77 119.793V155.958M1011.77 119.793H1054.27M1011.77 155.958V192.123M1011.77 155.958H1054.27M1011.77 192.123V228.288M1011.77 192.123H1054.27M1011.77 228.288V264.453M1011.77 228.288H1054.27M1011.77 264.453V300.618M1011.77 264.453H1054.27M1011.77 300.618V336.783M1011.77 300.618H1054.27M1011.77 336.783V372.948M1011.77 336.783H1054.27M1011.77 372.948V409.113M1011.77 372.948H1054.27M1011.77 409.113V445.278M1011.77 409.113H1054.27M1011.77 445.278V481.443M1011.77 445.278H1054.27M1011.77 481.443V517.608M1011.77 481.443H1054.27M1011.77 517.608V553.773M1011.77 517.608H1054.27M1011.77 553.773V589.938M1011.77 553.773H1054.27M1011.77 589.938V626.103M1011.77 589.938H1054.27M1011.77 626.103V662.268M1011.77 626.103H1054.27M1011.77 662.268V698.433M1011.77 662.268H1054.27M1011.77 698.433V734.598M1011.77 698.433H1054.27M1011.77 734.598H1054.27M1054.27 11.2979V47.4629M1054.27 11.2979H1096.77M1054.27 47.4629V83.6279M1054.27 47.4629H1096.77M1054.27 83.6279V119.793M1054.27 83.6279H1096.77M1054.27 119.793V155.958M1054.27 119.793H1096.77M1054.27 155.958V192.123M1054.27 155.958H1096.77M1054.27 192.123V228.288M1054.27 192.123H1096.77M1054.27 228.288V264.453M1054.27 228.288H1096.77M1054.27 264.453V300.618M1054.27 264.453H1096.77M1054.27 300.618V336.783M1054.27 300.618H1096.77M1054.27 336.783V372.948M1054.27 336.783H1096.77M1054.27 372.948V409.113M1054.27 372.948H1096.77M1054.27 409.113V445.278M1054.27 409.113H1096.77M1054.27 445.278V481.443M1054.27 445.278H1096.77M1054.27 481.443V517.608M1054.27 481.443H1096.77M1054.27 517.608V553.773M1054.27 517.608H1096.77M1054.27 553.773V589.938M1054.27 553.773H1096.77M1054.27 589.938V626.103M1054.27 589.938H1096.77M1054.27 626.103V662.268M1054.27 626.103H1096.77M1054.27 662.268V698.433M1054.27 662.268H1096.77M1054.27 698.433V734.598M1054.27 698.433H1096.77M1054.27 734.598H1096.77M1096.77 11.2979V47.4629M1096.77 11.2979H1139.27M1096.77 47.4629V83.6279M1096.77 47.4629H1139.27M1096.77 83.6279V119.793M1096.77 83.6279H1139.27M1096.77 119.793V155.958M1096.77 119.793H1139.27M1096.77 155.958V192.123M1096.77 155.958H1139.27M1096.77 192.123V228.288M1096.77 192.123H1139.27M1096.77 228.288V264.453M1096.77 228.288H1139.27M1096.77 264.453V300.618M1096.77 264.453H1139.27M1096.77 300.618V336.783M1096.77 300.618H1139.27M1096.77 336.783V372.948M1096.77 336.783H1139.27M1096.77 372.948V409.113M1096.77 372.948H1139.27M1096.77 409.113V445.278M1096.77 409.113H1139.27M1096.77 445.278V481.443M1096.77 445.278H1139.27M1096.77 481.443V517.608M1096.77 481.443H1139.27M1096.77 517.608V553.773M1096.77 517.608H1139.27M1096.77 553.773V589.938M1096.77 553.773H1139.27M1096.77 589.938V626.103M1096.77 589.938H1139.27M1096.77 626.103V662.268M1096.77 626.103H1139.27M1096.77 662.268V698.433M1096.77 662.268H1139.27M1096.77 698.433V734.598M1096.77 698.433H1139.27M1096.77 734.598H1139.27M1139.27 11.2979V47.4629M1139.27 11.2979H1181.77M1139.27 47.4629V83.6279M1139.27 47.4629H1181.77M1139.27 83.6279V119.793M1139.27 83.6279H1181.77M1139.27 119.793V155.958M1139.27 119.793H1181.77M1139.27 155.958V192.123M1139.27 155.958H1181.77M1139.27 192.123V228.288M1139.27 192.123H1181.77M1139.27 228.288V264.453M1139.27 228.288H1181.77M1139.27 264.453V300.618M1139.27 264.453H1181.77M1139.27 300.618V336.783M1139.27 300.618H1181.77M1139.27 336.783V372.948M1139.27 336.783H1181.77M1139.27 372.948V409.113M1139.27 372.948H1181.77M1139.27 409.113V445.278M1139.27 409.113H1181.77M1139.27 445.278V481.443M1139.27 445.278H1181.77M1139.27 481.443V517.608M1139.27 481.443H1181.77M1139.27 517.608V553.773M1139.27 517.608H1181.77M1139.27 553.773V589.938M1139.27 553.773H1181.77M1139.27 589.938V626.103M1139.27 589.938H1181.77M1139.27 626.103V662.268M1139.27 626.103H1181.77M1139.27 662.268V698.433M1139.27 662.268H1181.77M1139.27 698.433V734.598M1139.27 698.433H1181.77M1139.27 734.598H1181.77M1181.77 11.2979V47.4629M1181.77 11.2979H1224.27M1181.77 47.4629V83.6279M1181.77 47.4629H1224.27M1181.77 83.6279V119.793M1181.77 83.6279H1224.27M1181.77 119.793V155.958M1181.77 119.793H1224.27M1181.77 155.958V192.123M1181.77 155.958H1224.27M1181.77 192.123V228.288M1181.77 192.123H1224.27M1181.77 228.288V264.453M1181.77 228.288H1224.27M1181.77 264.453V300.618M1181.77 264.453H1224.27M1181.77 300.618V336.783M1181.77 300.618H1224.27M1181.77 336.783V372.948M1181.77 336.783H1224.27M1181.77 372.948V409.113M1181.77 372.948H1224.27M1181.77 409.113V445.278M1181.77 409.113H1224.27M1181.77 445.278V481.443M1181.77 445.278H1224.27M1181.77 481.443V517.608M1181.77 481.443H1224.27M1181.77 517.608V553.773M1181.77 517.608H1224.27M1181.77 553.773V589.938M1181.77 553.773H1224.27M1181.77 589.938V626.103M1181.77 589.938H1224.27M1181.77 626.103V662.268M1181.77 626.103H1224.27M1181.77 662.268V698.433M1181.77 662.268H1224.27M1181.77 698.433V734.598M1181.77 698.433H1224.27M1181.77 734.598H1224.27M1224.27 11.2979V47.4629M1224.27 11.2979H1266.78M1224.27 47.4629V83.6279M1224.27 47.4629H1266.78M1224.27 83.6279V119.793M1224.27 83.6279H1266.78M1224.27 119.793V155.958M1224.27 119.793H1266.78M1224.27 155.958V192.123M1224.27 155.958H1266.78M1224.27 192.123V228.288M1224.27 192.123H1266.78M1224.27 228.288V264.453M1224.27 228.288H1266.78M1224.27 264.453V300.618M1224.27 264.453H1266.78M1224.27 300.618V336.783M1224.27 300.618H1266.78M1224.27 336.783V372.948M1224.27 336.783H1266.78M1224.27 372.948V409.113M1224.27 372.948H1266.78M1224.27 409.113V445.278M1224.27 409.113H1266.78M1224.27 445.278V481.443M1224.27 445.278H1266.78M1224.27 481.443V517.608M1224.27 481.443H1266.78M1224.27 517.608V553.773M1224.27 517.608H1266.78M1224.27 553.773V589.938M1224.27 553.773H1266.78M1224.27 589.938V626.103M1224.27 589.938H1266.78M1224.27 626.103V662.268M1224.27 626.103H1266.78M1224.27 662.268V698.433M1224.27 662.268H1266.78M1224.27 698.433V734.598M1224.27 698.433H1266.78M1224.27 734.598H1266.78M1266.78 11.2979V47.4629M1266.78 11.2979H1309.28M1266.78 47.4629V83.6279M1266.78 47.4629H1309.28M1266.78 83.6279V119.793M1266.78 83.6279H1309.28M1266.78 119.793V155.958M1266.78 119.793H1309.28M1266.78 155.958V192.123M1266.78 155.958H1309.28M1266.78 192.123V228.288M1266.78 192.123H1309.28M1266.78 228.288V264.453M1266.78 228.288H1309.28M1266.78 264.453V300.618M1266.78 264.453H1309.28M1266.78 300.618V336.783M1266.78 300.618H1309.28M1266.78 336.783V372.948M1266.78 336.783H1309.28M1266.78 372.948V409.113M1266.78 372.948H1309.28M1266.78 409.113V445.278M1266.78 409.113H1309.28M1266.78 445.278V481.443M1266.78 445.278H1309.28M1266.78 481.443V517.608M1266.78 481.443H1309.28M1266.78 517.608V553.773M1266.78 517.608H1309.28M1266.78 553.773V589.938M1266.78 553.773H1309.28M1266.78 589.938V626.103M1266.78 589.938H1309.28M1266.78 626.103V662.268M1266.78 626.103H1309.28M1266.78 662.268V698.433M1266.78 662.268H1309.28M1266.78 698.433V734.598M1266.78 698.433H1309.28M1266.78 734.598H1309.28M1309.28 11.2979V47.4629M1309.28 11.2979H1351.78M1309.28 47.4629V83.6279M1309.28 47.4629H1351.78M1309.28 83.6279V119.793M1309.28 83.6279H1351.78M1309.28 119.793V155.958M1309.28 119.793H1351.78M1309.28 155.958V192.123M1309.28 155.958H1351.78M1309.28 192.123V228.288M1309.28 192.123H1351.78M1309.28 228.288V264.453M1309.28 228.288H1351.78M1309.28 264.453V300.618M1309.28 264.453H1351.78M1309.28 300.618V336.783M1309.28 300.618H1351.78M1309.28 336.783V372.948M1309.28 336.783H1351.78M1309.28 372.948V409.113M1309.28 372.948H1351.78M1309.28 409.113V445.278M1309.28 409.113H1351.78M1309.28 445.278V481.443M1309.28 445.278H1351.78M1309.28 481.443V517.608M1309.28 481.443H1351.78M1309.28 517.608V553.773M1309.28 517.608H1351.78M1309.28 553.773V589.938M1309.28 553.773H1351.78M1309.28 589.938V626.103M1309.28 589.938H1351.78M1309.28 626.103V662.268M1309.28 626.103H1351.78M1309.28 662.268V698.433M1309.28 662.268H1351.78M1309.28 698.433V734.598M1309.28 698.433H1351.78M1309.28 734.598H1351.78M1351.78 11.2979V47.4629M1351.78 11.2979H1394.28M1351.78 47.4629V83.6279M1351.78 47.4629H1394.28M1351.78 83.6279V119.793M1351.78 83.6279H1394.28M1351.78 119.793V155.958M1351.78 119.793H1394.28M1351.78 155.958V192.123M1351.78 155.958H1394.28M1351.78 192.123V228.288M1351.78 192.123H1394.28M1351.78 228.288V264.453M1351.78 228.288H1394.28M1351.78 264.453V300.618M1351.78 264.453H1394.28M1351.78 300.618V336.783M1351.78 300.618H1394.28M1351.78 336.783V372.948M1351.78 336.783H1394.28M1351.78 372.948V409.113M1351.78 372.948H1394.28M1351.78 409.113V445.278M1351.78 409.113H1394.28M1351.78 445.278V481.443M1351.78 445.278H1394.28M1351.78 481.443V517.608M1351.78 481.443H1394.28M1351.78 517.608V553.773M1351.78 517.608H1394.28M1351.78 553.773V589.938M1351.78 553.773H1394.28M1351.78 589.938V626.103M1351.78 589.938H1394.28M1351.78 626.103V662.268M1351.78 626.103H1394.28M1351.78 662.268V698.433M1351.78 662.268H1394.28M1351.78 698.433V734.598M1351.78 698.433H1394.28M1351.78 734.598H1394.28M1394.28 11.2979V47.4629M1394.28 11.2979H1436.78M1394.28 47.4629V83.6279M1394.28 47.4629H1436.78M1394.28 83.6279V119.793M1394.28 83.6279H1436.78M1394.28 119.793V155.958M1394.28 119.793H1436.78M1394.28 155.958V192.123M1394.28 155.958H1436.78M1394.28 192.123V228.288M1394.28 192.123H1436.78M1394.28 228.288V264.453M1394.28 228.288H1436.78M1394.28 264.453V300.618M1394.28 264.453H1436.78M1394.28 300.618V336.783M1394.28 300.618H1436.78M1394.28 336.783V372.948M1394.28 336.783H1436.78M1394.28 372.948V409.113M1394.28 372.948H1436.78M1394.28 409.113V445.278M1394.28 409.113H1436.78M1394.28 445.278V481.443M1394.28 445.278H1436.78M1394.28 481.443V517.608M1394.28 481.443H1436.78M1394.28 517.608V553.773M1394.28 517.608H1436.78M1394.28 553.773V589.938M1394.28 553.773H1436.78M1394.28 589.938V626.103M1394.28 589.938H1436.78M1394.28 626.103V662.268M1394.28 626.103H1436.78M1394.28 662.268V698.433M1394.28 662.268H1436.78M1394.28 698.433V734.598M1394.28 698.433H1436.78M1394.28 734.598H1436.78M1436.78 11.2979V47.4629M1436.78 11.2979H1479.28M1436.78 47.4629V83.6279M1436.78 47.4629H1479.28M1436.78 83.6279V119.793M1436.78 83.6279H1479.28M1436.78 119.793V155.958M1436.78 119.793H1479.28M1436.78 155.958V192.123M1436.78 155.958H1479.28M1436.78 192.123V228.288M1436.78 192.123H1479.28M1436.78 228.288V264.453M1436.78 228.288H1479.28M1436.78 264.453V300.618M1436.78 264.453H1479.28M1436.78 300.618V336.783M1436.78 300.618H1479.28M1436.78 336.783V372.948M1436.78 336.783H1479.28M1436.78 372.948V409.113M1436.78 372.948H1479.28M1436.78 409.113V445.278M1436.78 409.113H1479.28M1436.78 445.278V481.443M1436.78 445.278H1479.28M1436.78 481.443V517.608M1436.78 481.443H1479.28M1436.78 517.608V553.773M1436.78 517.608H1479.28M1436.78 553.773V589.938M1436.78 553.773H1479.28M1436.78 589.938V626.103M1436.78 589.938H1479.28M1436.78 626.103V662.268M1436.78 626.103H1479.28M1436.78 662.268V698.433M1436.78 662.268H1479.28M1436.78 698.433V734.598M1436.78 698.433H1479.28M1436.78 734.598H1479.28M1479.28 11.2979V47.4629M1479.28 11.2979H1521.78M1479.28 47.4629V83.6279M1479.28 47.4629H1521.78M1479.28 83.6279V119.793M1479.28 83.6279H1521.78M1479.28 119.793V155.958M1479.28 119.793H1521.78M1479.28 155.958V192.123M1479.28 155.958H1521.78M1479.28 192.123V228.288M1479.28 192.123H1521.78M1479.28 228.288V264.453M1479.28 228.288H1521.78M1479.28 264.453V300.618M1479.28 264.453H1521.78M1479.28 300.618V336.783M1479.28 300.618H1521.78M1479.28 336.783V372.948M1479.28 336.783H1521.78M1479.28 372.948V409.113M1479.28 372.948H1521.78M1479.28 409.113V445.278M1479.28 409.113H1521.78M1479.28 445.278V481.443M1479.28 445.278H1521.78M1479.28 481.443V517.608M1479.28 481.443H1521.78M1479.28 517.608V553.773M1479.28 517.608H1521.78M1479.28 553.773V589.938M1479.28 553.773H1521.78M1479.28 589.938V626.103M1479.28 589.938H1521.78M1479.28 626.103V662.268M1479.28 626.103H1521.78M1479.28 662.268V698.433M1479.28 662.268H1521.78M1479.28 698.433V734.598M1479.28 698.433H1521.78M1479.28 734.598H1521.78M1521.78 11.2979V47.4629M1521.78 11.2979H1564.28M1521.78 47.4629V83.6279M1521.78 47.4629H1564.28M1521.78 83.6279V119.793M1521.78 83.6279H1564.28M1521.78 119.793V155.958M1521.78 119.793H1564.28M1521.78 155.958V192.123M1521.78 155.958H1564.28M1521.78 192.123V228.288M1521.78 192.123H1564.28M1521.78 228.288V264.453M1521.78 228.288H1564.28M1521.78 264.453V300.618M1521.78 264.453H1564.28M1521.78 300.618V336.783M1521.78 300.618H1564.28M1521.78 336.783V372.948M1521.78 336.783H1564.28M1521.78 372.948V409.113M1521.78 372.948H1564.28M1521.78 409.113V445.278M1521.78 409.113H1564.28M1521.78 445.278V481.443M1521.78 445.278H1564.28M1521.78 481.443V517.608M1521.78 481.443H1564.28M1521.78 517.608V553.773M1521.78 517.608H1564.28M1521.78 553.773V589.938M1521.78 553.773H1564.28M1521.78 589.938V626.103M1521.78 589.938H1564.28M1521.78 626.103V662.268M1521.78 626.103H1564.28M1521.78 662.268V698.433M1521.78 662.268H1564.28M1521.78 698.433V734.598M1521.78 698.433H1564.28M1521.78 734.598H1564.28M1564.28 11.2979V47.4629M1564.28 11.2979H1606.78V47.4629M1564.28 47.4629V83.6279M1564.28 47.4629H1606.78M1564.28 83.6279V119.793M1564.28 83.6279H1606.78M1564.28 119.793V155.958M1564.28 119.793H1606.78M1564.28 155.958V192.123M1564.28 155.958H1606.78M1564.28 192.123V228.288M1564.28 192.123H1606.78M1564.28 228.288V264.453M1564.28 228.288H1606.78M1564.28 264.453V300.618M1564.28 264.453H1606.78M1564.28 300.618V336.783M1564.28 300.618H1606.78M1564.28 336.783V372.948M1564.28 336.783H1606.78M1564.28 372.948V409.113M1564.28 372.948H1606.78M1564.28 409.113V445.278M1564.28 409.113H1606.78M1564.28 445.278V481.443M1564.28 445.278H1606.78M1564.28 481.443V517.608M1564.28 481.443H1606.78M1564.28 517.608V553.773M1564.28 517.608H1606.78M1564.28 553.773V589.938M1564.28 553.773H1606.78M1564.28 589.938V626.103M1564.28 589.938H1606.78M1564.28 626.103V662.268M1564.28 626.103H1606.78M1564.28 662.268V698.433M1564.28 662.268H1606.78M1564.28 698.433V734.598M1564.28 698.433H1606.78M1564.28 734.598H1606.78V698.433M1606.78 47.4629V83.6279M1606.78 83.6279V119.793M1606.78 119.793V155.958M1606.78 155.958V192.123M1606.78 192.123V228.288M1606.78 228.288V264.453M1606.78 264.453V300.618M1606.78 300.618V336.783M1606.78 336.783V372.948M1606.78 372.948V409.113M1606.78 409.113V445.278M1606.78 445.278V481.443M1606.78 481.443V517.608M1606.78 517.608V553.773M1606.78 553.773V589.938M1606.78 589.938V626.103M1606.78 626.103V662.268M1606.78 662.268V698.433" stroke="url(#paint0_radial_587_1244)" stroke-opacity="0.45" stroke-width="0.441687"/>
</g>
<g style="mix-blend-mode:hard-light" opacity="0.8">
<path d="M-93.247 145.11V155.96M-93.247 155.96V166.809M-93.247 155.96H-105.997M-93.247 155.96H-80.4968M-93.247 434.431V445.28M-93.247 445.28V456.13M-93.247 445.28H-105.997M-93.247 445.28H-80.4968M-93.247 723.751V734.6M-93.247 734.6V745.45M-93.247 734.6H-105.997M-93.247 734.6H-80.4968M246.759 145.11V155.96M246.759 155.96V166.809M246.759 155.96H234.008M246.759 155.96H259.509M246.759 434.431V445.28M246.759 445.28V456.13M246.759 445.28H234.008M246.759 445.28H259.509M246.759 723.751V734.6M246.759 734.6V745.45M246.759 734.6H234.008M246.759 734.6H259.509M586.764 145.11V155.96M586.764 155.96V166.809M586.764 155.96H574.014M586.764 155.96H599.514M586.764 434.431V445.28M586.764 445.28V456.13M586.764 445.28H574.014M586.764 445.28H599.514M586.764 723.751V734.6M586.764 734.6V745.45M586.764 734.6H574.014M586.764 734.6H599.514M926.77 145.11V155.96M926.77 155.96V166.809M926.77 155.96H914.02M926.77 155.96H939.52M926.77 434.431V445.28M926.77 445.28V456.13M926.77 445.28H914.02M926.77 445.28H939.52M926.77 723.751V734.6M926.77 734.6V745.45M926.77 734.6H914.02M926.77 734.6H939.52M1266.78 145.11V155.96M1266.78 155.96V166.809M1266.78 155.96H1254.03M1266.78 155.96H1279.53M1266.78 434.431V445.28M1266.78 445.28V456.13M1266.78 445.28H1254.03M1266.78 445.28H1279.53M1266.78 723.751V734.6M1266.78 734.6V745.45M1266.78 734.6H1254.03M1266.78 734.6H1279.53M1606.78 145.11V155.96M1606.78 155.96V166.809M1606.78 155.96H1594.03M1606.78 155.96H1619.53M1606.78 434.431V445.28M1606.78 445.28V456.13M1606.78 445.28H1594.03M1606.78 445.28H1619.53M1606.78 723.751V734.6M1606.78 734.6V745.45M1606.78 734.6H1594.03M1606.78 734.6H1619.53M-93.247 0.449951V11.2995M-93.247 11.2995V22.149M-93.247 11.2995H-105.997M-93.247 11.2995H-80.4968M-93.247 289.77V300.62M-93.247 300.62V311.469M-93.247 300.62H-105.997M-93.247 300.62H-80.4968M-93.247 579.091V589.94M-93.247 589.94V600.79M-93.247 589.94H-105.997M-93.247 589.94H-80.4968M246.759 0.449951V11.2995M246.759 11.2995V22.149M246.759 11.2995H234.008M246.759 11.2995H259.509M246.759 289.77V300.62M246.759 300.62V311.469M246.759 300.62H234.008M246.759 300.62H259.509M246.759 579.091V589.94M246.759 589.94V600.79M246.759 589.94H234.008M246.759 589.94H259.509M586.764 0.449951V11.2995M586.764 11.2995V22.149M586.764 11.2995H574.014M586.764 11.2995H599.514M586.764 289.77V300.62M586.764 300.62V311.469M586.764 300.62H574.014M586.764 300.62H599.514M586.764 579.091V589.94M586.764 589.94V600.79M586.764 589.94H574.014M586.764 589.94H599.514M926.77 0.449951V11.2995M926.77 11.2995V22.149M926.77 11.2995H914.02M926.77 11.2995H939.52M926.77 289.77V300.62M926.77 300.62V311.469M926.77 300.62H914.02M926.77 300.62H939.52M926.77 579.091V589.94M926.77 589.94V600.79M926.77 589.94H914.02M926.77 589.94H939.52M1266.78 0.449951V11.2995M1266.78 11.2995V22.149M1266.78 11.2995H1254.03M1266.78 11.2995H1279.53M1266.78 289.77V300.62M1266.78 300.62V311.469M1266.78 300.62H1254.03M1266.78 300.62H1279.53M1266.78 579.091V589.94M1266.78 589.94V600.79M1266.78 589.94H1254.03M1266.78 589.94H1279.53M1606.78 0.449951V11.2995M1606.78 11.2995V22.149M1606.78 11.2995H1594.03M1606.78 11.2995H1619.53M1606.78 289.77V300.62M1606.78 300.62V311.469M1606.78 300.62H1594.03M1606.78 300.62H1619.53M1606.78 579.091V589.94M1606.78 589.94V600.79M1606.78 589.94H1594.03M1606.78 589.94H1619.53M-263.25 145.11V155.96M-263.25 155.96V166.809M-263.25 155.96H-276M-263.25 155.96H-250.5M-263.25 434.431V445.28M-263.25 445.28V456.13M-263.25 445.28H-276M-263.25 445.28H-250.5M-263.25 723.751V734.6M-263.25 734.6V745.45M-263.25 734.6H-276M-263.25 734.6H-250.5M76.7559 145.11V155.96M76.7559 155.96V166.809M76.7559 155.96H64.0056M76.7559 155.96H89.5061M76.7559 434.431V445.28M76.7559 445.28V456.13M76.7559 445.28H64.0056M76.7559 445.28H89.5061M76.7559 723.751V734.6M76.7559 734.6V745.45M76.7559 734.6H64.0056M76.7559 734.6H89.5061M416.761 145.11V155.96M416.761 155.96V166.809M416.761 155.96H404.011M416.761 155.96H429.512M416.761 434.431V445.28M416.761 445.28V456.13M416.761 445.28H404.011M416.761 445.28H429.512M416.761 723.751V734.6M416.761 734.6V745.45M416.761 734.6H404.011M416.761 734.6H429.512M756.767 145.11V155.96M756.767 155.96V166.809M756.767 155.96H744.017M756.767 155.96H769.517M756.767 434.431V445.28M756.767 445.28V456.13M756.767 445.28H744.017M756.767 445.28H769.517M756.767 723.751V734.6M756.767 734.6V745.45M756.767 734.6H744.017M756.767 734.6H769.517M1096.77 145.11V155.96M1096.77 155.96V166.809M1096.77 155.96H1084.02M1096.77 155.96H1109.52M1096.77 434.431V445.28M1096.77 445.28V456.13M1096.77 445.28H1084.02M1096.77 445.28H1109.52M1096.77 723.751V734.6M1096.77 734.6V745.45M1096.77 734.6H1084.02M1096.77 734.6H1109.52M1436.78 145.11V155.96M1436.78 155.96V166.809M1436.78 155.96H1424.03M1436.78 155.96H1449.53M1436.78 434.431V445.28M1436.78 445.28V456.13M1436.78 445.28H1424.03M1436.78 445.28H1449.53M1436.78 723.751V734.6M1436.78 734.6V745.45M1436.78 734.6H1424.03M1436.78 734.6H1449.53M-263.25 0.450005V11.2995M-263.25 11.2995V22.149M-263.25 11.2995H-276M-263.25 11.2995H-250.5M-263.25 289.77V300.62M-263.25 300.62V311.469M-263.25 300.62H-276M-263.25 300.62H-250.5M-263.25 579.091V589.94M-263.25 589.94V600.79M-263.25 589.94H-276M-263.25 589.94H-250.5M76.7559 0.449951V11.2995M76.7559 11.2995V22.149M76.7559 11.2995H64.0056M76.7559 11.2995H89.5061M76.7559 289.77V300.62M76.7559 300.62V311.469M76.7559 300.62H64.0056M76.7559 300.62H89.5061M76.7559 579.091V589.94M76.7559 589.94V600.79M76.7559 589.94H64.0056M76.7559 589.94H89.5061M416.761 0.449951V11.2995M416.761 11.2995V22.149M416.761 11.2995H404.011M416.761 11.2995H429.512M416.761 289.77V300.62M416.761 300.62V311.469M416.761 300.62H404.011M416.761 300.62H429.512M416.761 579.091V589.94M416.761 589.94V600.79M416.761 589.94H404.011M416.761 589.94H429.512M756.767 0.449951V11.2995M756.767 11.2995V22.149M756.767 11.2995H744.017M756.767 11.2995H769.517M756.767 289.77V300.62M756.767 300.62V311.469M756.767 300.62H744.017M756.767 300.62H769.517M756.767 579.091V589.94M756.767 589.94V600.79M756.767 589.94H744.017M756.767 589.94H769.517M1096.77 0.449951V11.2995M1096.77 11.2995V22.149M1096.77 11.2995H1084.02M1096.77 11.2995H1109.52M1096.77 289.77V300.62M1096.77 300.62V311.469M1096.77 300.62H1084.02M1096.77 300.62H1109.52M1096.77 579.091V589.94M1096.77 589.94V600.79M1096.77 589.94H1084.02M1096.77 589.94H1109.52M1436.78 0.449951V11.2995M1436.78 11.2995V22.149M1436.78 11.2995H1424.03M1436.78 11.2995H1449.53M1436.78 289.77V300.62M1436.78 300.62V311.469M1436.78 300.62H1424.03M1436.78 300.62H1449.53M1436.78 579.091V589.94M1436.78 589.94V600.79M1436.78 589.94H1424.03M1436.78 589.94H1449.53" stroke="url(#paint1_radial_587_1244)" stroke-opacity="0.45" stroke-width="0.883375"/>
</g>
<defs>
<radialGradient id="paint0_radial_587_1244" cx="0" cy="0" r="1" gradientUnits="userSpaceOnUse" gradientTransform="translate(671.766 372.948) rotate(90) scale(361.65 755.041)">
<stop offset="0.57" stop-color="#9BC53D" stop-opacity="0.5"/>
<stop offset="1" stop-color="#9BC53D"/>
</radialGradient>
<radialGradient id="paint1_radial_587_1244" cx="0" cy="0" r="1" gradientUnits="userSpaceOnUse" gradientTransform="translate(671.766 372.95) rotate(90) scale(372.5 765.337)">
<stop offset="0.57" stop-color="#9BC53D" stop-opacity="0.5"/>
<stop offset="1" stop-color="#9BC53D"/>
</radialGradient>
</defs>
</svg>
