<svg width="1346" height="463" viewBox="0 0 1346 463" fill="none" xmlns="http://www.w3.org/2000/svg">
<g style="mix-blend-mode:hard-light" opacity="0.7">
<path d="M31.5404 0.352295H0.994995V23.4263M31.5404 0.352295V23.4263M31.5404 0.352295H62.0859M31.5404 23.4263H0.994995M31.5404 23.4263V46.5004M31.5404 23.4263H62.0859M0.994995 23.4263V46.5004M31.5404 46.5004H0.994995M31.5404 46.5004V69.5744M31.5404 46.5004H62.0859M0.994995 46.5004V69.5744M31.5404 69.5744H0.994995M31.5404 69.5744V92.6484M31.5404 69.5744H62.0859M0.994995 69.5744V92.6484M31.5404 92.6484H0.994995M31.5404 92.6484V115.722M31.5404 92.6484H62.0859M0.994995 92.6484V115.722M31.5404 115.722H0.994995M31.5404 115.722V138.796M31.5404 115.722H62.0859M0.994995 115.722V138.796M31.5404 138.796H0.994995M31.5404 138.796V161.871M31.5404 138.796H62.0859M0.994995 138.796V161.871M31.5404 161.871H0.994995M31.5404 161.871V184.945M31.5404 161.871H62.0859M0.994995 161.871V184.945M31.5404 184.945H0.994995M31.5404 184.945V208.019M31.5404 184.945H62.0859M0.994995 184.945V208.019M31.5404 208.019H0.994995M31.5404 208.019V231.093M31.5404 208.019H62.0859M0.994995 208.019V231.093M31.5404 231.093H0.994995M31.5404 231.093V254.167M31.5404 231.093H62.0859M0.994995 231.093V254.167M31.5404 254.167H0.994995M31.5404 254.167V277.241M31.5404 254.167H62.0859M0.994995 254.167V277.241M31.5404 277.241H0.994995M31.5404 277.241V300.315M31.5404 277.241H62.0859M0.994995 277.241V300.315M31.5404 300.315H0.994995M31.5404 300.315V323.389M31.5404 300.315H62.0859M0.994995 300.315V323.389M31.5404 323.389H0.994995M31.5404 323.389V346.463M31.5404 323.389H62.0859M0.994995 323.389V346.463M31.5404 346.463H0.994995M31.5404 346.463V369.537M31.5404 346.463H62.0859M0.994995 346.463V369.537M31.5404 369.537H0.994995M31.5404 369.537V392.611M31.5404 369.537H62.0859M0.994995 369.537V392.611M31.5404 392.611H0.994995M31.5404 392.611V415.685M31.5404 392.611H62.0859M0.994995 392.611V415.685M31.5404 415.685H0.994995M31.5404 415.685V438.759M31.5404 415.685H62.0859M0.994995 415.685V438.759M31.5404 438.759H0.994995M31.5404 438.759V461.833M31.5404 438.759H62.0859M0.994995 438.759V461.833H31.5404M31.5404 461.833H62.0859M62.0859 0.352295V23.4263M62.0859 0.352295H92.6314M62.0859 23.4263V46.5004M62.0859 23.4263H92.6314M62.0859 46.5004V69.5744M62.0859 46.5004H92.6314M62.0859 69.5744V92.6484M62.0859 69.5744H92.6314M62.0859 92.6484V115.722M62.0859 92.6484H92.6314M62.0859 115.722V138.796M62.0859 115.722H92.6314M62.0859 138.796V161.871M62.0859 138.796H92.6314M62.0859 161.871V184.945M62.0859 161.871H92.6314M62.0859 184.945V208.019M62.0859 184.945H92.6314M62.0859 208.019V231.093M62.0859 208.019H92.6314M62.0859 231.093V254.167M62.0859 231.093H92.6314M62.0859 254.167V277.241M62.0859 254.167H92.6314M62.0859 277.241V300.315M62.0859 277.241H92.6314M62.0859 300.315V323.389M62.0859 300.315H92.6314M62.0859 323.389V346.463M62.0859 323.389H92.6314M62.0859 346.463V369.537M62.0859 346.463H92.6314M62.0859 369.537V392.611M62.0859 369.537H92.6314M62.0859 392.611V415.685M62.0859 392.611H92.6314M62.0859 415.685V438.759M62.0859 415.685H92.6314M62.0859 438.759V461.833M62.0859 438.759H92.6314M62.0859 461.833H92.6314M92.6314 0.352295V23.4263M92.6314 0.352295H123.177M92.6314 23.4263V46.5004M92.6314 23.4263H123.177M92.6314 46.5004V69.5744M92.6314 46.5004H123.177M92.6314 69.5744V92.6484M92.6314 69.5744H123.177M92.6314 92.6484V115.722M92.6314 92.6484H123.177M92.6314 115.722V138.796M92.6314 115.722H123.177M92.6314 138.796V161.871M92.6314 138.796H123.177M92.6314 161.871V184.945M92.6314 161.871H123.177M92.6314 184.945V208.019M92.6314 184.945H123.177M92.6314 208.019V231.093M92.6314 208.019H123.177M92.6314 231.093V254.167M92.6314 231.093H123.177M92.6314 254.167V277.241M92.6314 254.167H123.177M92.6314 277.241V300.315M92.6314 277.241H123.177M92.6314 300.315V323.389M92.6314 300.315H123.177M92.6314 323.389V346.463M92.6314 323.389H123.177M92.6314 346.463V369.537M92.6314 346.463H123.177M92.6314 369.537V392.611M92.6314 369.537H123.177M92.6314 392.611V415.685M92.6314 392.611H123.177M92.6314 415.685V438.759M92.6314 415.685H123.177M92.6314 438.759V461.833M92.6314 438.759H123.177M92.6314 461.833H123.177M123.177 0.352295V23.4263M123.177 0.352295H153.722M123.177 23.4263V46.5004M123.177 23.4263H153.722M123.177 46.5004V69.5744M123.177 46.5004H153.722M123.177 69.5744V92.6484M123.177 69.5744H153.722M123.177 92.6484V115.722M123.177 92.6484H153.722M123.177 115.722V138.796M123.177 115.722H153.722M123.177 138.796V161.871M123.177 138.796H153.722M123.177 161.871V184.945M123.177 161.871H153.722M123.177 184.945V208.019M123.177 184.945H153.722M123.177 208.019V231.093M123.177 208.019H153.722M123.177 231.093V254.167M123.177 231.093H153.722M123.177 254.167V277.241M123.177 254.167H153.722M123.177 277.241V300.315M123.177 277.241H153.722M123.177 300.315V323.389M123.177 300.315H153.722M123.177 323.389V346.463M123.177 323.389H153.722M123.177 346.463V369.537M123.177 346.463H153.722M123.177 369.537V392.611M123.177 369.537H153.722M123.177 392.611V415.685M123.177 392.611H153.722M123.177 415.685V438.759M123.177 415.685H153.722M123.177 438.759V461.833M123.177 438.759H153.722M123.177 461.833H153.722M153.722 0.352295V23.4263M153.722 0.352295H184.268M153.722 23.4263V46.5004M153.722 23.4263H184.268M153.722 46.5004V69.5744M153.722 46.5004H184.268M153.722 69.5744V92.6484M153.722 69.5744H184.268M153.722 92.6484V115.722M153.722 92.6484H184.268M153.722 115.722V138.796M153.722 115.722H184.268M153.722 138.796V161.871M153.722 138.796H184.268M153.722 161.871V184.945M153.722 161.871H184.268M153.722 184.945V208.019M153.722 184.945H184.268M153.722 208.019V231.093M153.722 208.019H184.268M153.722 231.093V254.167M153.722 231.093H184.268M153.722 254.167V277.241M153.722 254.167H184.268M153.722 277.241V300.315M153.722 277.241H184.268M153.722 300.315V323.389M153.722 300.315H184.268M153.722 323.389V346.463M153.722 323.389H184.268M153.722 346.463V369.537M153.722 346.463H184.268M153.722 369.537V392.611M153.722 369.537H184.268M153.722 392.611V415.685M153.722 392.611H184.268M153.722 415.685V438.759M153.722 415.685H184.268M153.722 438.759V461.833M153.722 438.759H184.268M153.722 461.833H184.268M184.268 0.352295V23.4263M184.268 0.352295H214.813M184.268 23.4263V46.5004M184.268 23.4263H214.813M184.268 46.5004V69.5744M184.268 46.5004H214.813M184.268 69.5744V92.6484M184.268 69.5744H214.813M184.268 92.6484V115.722M184.268 92.6484H214.813M184.268 115.722V138.796M184.268 115.722H214.813M184.268 138.796V161.871M184.268 138.796H214.813M184.268 161.871V184.945M184.268 161.871H214.813M184.268 184.945V208.019M184.268 184.945H214.813M184.268 208.019V231.093M184.268 208.019H214.813M184.268 231.093V254.167M184.268 231.093H214.813M184.268 254.167V277.241M184.268 254.167H214.813M184.268 277.241V300.315M184.268 277.241H214.813M184.268 300.315V323.389M184.268 300.315H214.813M184.268 323.389V346.463M184.268 323.389H214.813M184.268 346.463V369.537M184.268 346.463H214.813M184.268 369.537V392.611M184.268 369.537H214.813M184.268 392.611V415.685M184.268 392.611H214.813M184.268 415.685V438.759M184.268 415.685H214.813M184.268 438.759V461.833M184.268 438.759H214.813M184.268 461.833H214.813M214.813 0.352295V23.4263M214.813 0.352295H245.359M214.813 23.4263V46.5004M214.813 23.4263H245.359M214.813 46.5004V69.5744M214.813 46.5004H245.359M214.813 69.5744V92.6484M214.813 69.5744H245.359M214.813 92.6484V115.722M214.813 92.6484H245.359M214.813 115.722V138.796M214.813 115.722H245.359M214.813 138.796V161.871M214.813 138.796H245.359M214.813 161.871V184.945M214.813 161.871H245.359M214.813 184.945V208.019M214.813 184.945H245.359M214.813 208.019V231.093M214.813 208.019H245.359M214.813 231.093V254.167M214.813 231.093H245.359M214.813 254.167V277.241M214.813 254.167H245.359M214.813 277.241V300.315M214.813 277.241H245.359M214.813 300.315V323.389M214.813 300.315H245.359M214.813 323.389V346.463M214.813 323.389H245.359M214.813 346.463V369.537M214.813 346.463H245.359M214.813 369.537V392.611M214.813 369.537H245.359M214.813 392.611V415.685M214.813 392.611H245.359M214.813 415.685V438.759M214.813 415.685H245.359M214.813 438.759V461.833M214.813 438.759H245.359M214.813 461.833H245.359M245.359 0.352295V23.4263M245.359 0.352295H275.904M245.359 23.4263V46.5004M245.359 23.4263H275.904M245.359 46.5004V69.5744M245.359 46.5004H275.904M245.359 69.5744V92.6484M245.359 69.5744H275.904M245.359 92.6484V115.722M245.359 92.6484H275.904M245.359 115.722V138.796M245.359 115.722H275.904M245.359 138.796V161.871M245.359 138.796H275.904M245.359 161.871V184.945M245.359 161.871H275.904M245.359 184.945V208.019M245.359 184.945H275.904M245.359 208.019V231.093M245.359 208.019H275.904M245.359 231.093V254.167M245.359 231.093H275.904M245.359 254.167V277.241M245.359 254.167H275.904M245.359 277.241V300.315M245.359 277.241H275.904M245.359 300.315V323.389M245.359 300.315H275.904M245.359 323.389V346.463M245.359 323.389H275.904M245.359 346.463V369.537M245.359 346.463H275.904M245.359 369.537V392.611M245.359 369.537H275.904M245.359 392.611V415.685M245.359 392.611H275.904M245.359 415.685V438.759M245.359 415.685H275.904M245.359 438.759V461.833M245.359 438.759H275.904M245.359 461.833H275.904M275.904 0.352295V23.4263M275.904 0.352295H306.45M275.904 23.4263V46.5004M275.904 23.4263H306.45M275.904 46.5004V69.5744M275.904 46.5004H306.45M275.904 69.5744V92.6484M275.904 69.5744H306.45M275.904 92.6484V115.722M275.904 92.6484H306.45M275.904 115.722V138.796M275.904 115.722H306.45M275.904 138.796V161.871M275.904 138.796H306.45M275.904 161.871V184.945M275.904 161.871H306.45M275.904 184.945V208.019M275.904 184.945H306.45M275.904 208.019V231.093M275.904 208.019H306.45M275.904 231.093V254.167M275.904 231.093H306.45M275.904 254.167V277.241M275.904 254.167H306.45M275.904 277.241V300.315M275.904 277.241H306.45M275.904 300.315V323.389M275.904 300.315H306.45M275.904 323.389V346.463M275.904 323.389H306.45M275.904 346.463V369.537M275.904 346.463H306.45M275.904 369.537V392.611M275.904 369.537H306.45M275.904 392.611V415.685M275.904 392.611H306.45M275.904 415.685V438.759M275.904 415.685H306.45M275.904 438.759V461.833M275.904 438.759H306.45M275.904 461.833H306.45M306.45 0.352295V23.4263M306.45 0.352295H336.995M306.45 23.4263V46.5004M306.45 23.4263H336.995M306.45 46.5004V69.5744M306.45 46.5004H336.995M306.45 69.5744V92.6484M306.45 69.5744H336.995M306.45 92.6484V115.722M306.45 92.6484H336.995M306.45 115.722V138.796M306.45 115.722H336.995M306.45 138.796V161.871M306.45 138.796H336.995M306.45 161.871V184.945M306.45 161.871H336.995M306.45 184.945V208.019M306.45 184.945H336.995M306.45 208.019V231.093M306.45 208.019H336.995M306.45 231.093V254.167M306.45 231.093H336.995M306.45 254.167V277.241M306.45 254.167H336.995M306.45 277.241V300.315M306.45 277.241H336.995M306.45 300.315V323.389M306.45 300.315H336.995M306.45 323.389V346.463M306.45 323.389H336.995M306.45 346.463V369.537M306.45 346.463H336.995M306.45 369.537V392.611M306.45 369.537H336.995M306.45 392.611V415.685M306.45 392.611H336.995M306.45 415.685V438.759M306.45 415.685H336.995M306.45 438.759V461.833M306.45 438.759H336.995M306.45 461.833H336.995M336.995 0.352295V23.4263M336.995 0.352295H367.54M336.995 23.4263V46.5004M336.995 23.4263H367.54M336.995 46.5004V69.5744M336.995 46.5004H367.54M336.995 69.5744V92.6484M336.995 69.5744H367.54M336.995 92.6484V115.722M336.995 92.6484H367.54M336.995 115.722V138.796M336.995 115.722H367.54M336.995 138.796V161.871M336.995 138.796H367.54M336.995 161.871V184.945M336.995 161.871H367.54M336.995 184.945V208.019M336.995 184.945H367.54M336.995 208.019V231.093M336.995 208.019H367.54M336.995 231.093V254.167M336.995 231.093H367.54M336.995 254.167V277.241M336.995 254.167H367.54M336.995 277.241V300.315M336.995 277.241H367.54M336.995 300.315V323.389M336.995 300.315H367.54M336.995 323.389V346.463M336.995 323.389H367.54M336.995 346.463V369.537M336.995 346.463H367.54M336.995 369.537V392.611M336.995 369.537H367.54M336.995 392.611V415.685M336.995 392.611H367.54M336.995 415.685V438.759M336.995 415.685H367.54M336.995 438.759V461.833M336.995 438.759H367.54M336.995 461.833H367.54M367.54 0.352295V23.4263M367.54 0.352295H398.086M367.54 23.4263V46.5004M367.54 23.4263H398.086M367.54 46.5004V69.5744M367.54 46.5004H398.086M367.54 69.5744V92.6484M367.54 69.5744H398.086M367.54 92.6484V115.722M367.54 92.6484H398.086M367.54 115.722V138.796M367.54 115.722H398.086M367.54 138.796V161.871M367.54 138.796H398.086M367.54 161.871V184.945M367.54 161.871H398.086M367.54 184.945V208.019M367.54 184.945H398.086M367.54 208.019V231.093M367.54 208.019H398.086M367.54 231.093V254.167M367.54 231.093H398.086M367.54 254.167V277.241M367.54 254.167H398.086M367.54 277.241V300.315M367.54 277.241H398.086M367.54 300.315V323.389M367.54 300.315H398.086M367.54 323.389V346.463M367.54 323.389H398.086M367.54 346.463V369.537M367.54 346.463H398.086M367.54 369.537V392.611M367.54 369.537H398.086M367.54 392.611V415.685M367.54 392.611H398.086M367.54 415.685V438.759M367.54 415.685H398.086M367.54 438.759V461.833M367.54 438.759H398.086M367.54 461.833H398.086M398.086 0.352295V23.4263M398.086 0.352295H428.631M398.086 23.4263V46.5004M398.086 23.4263H428.631M398.086 46.5004V69.5744M398.086 46.5004H428.631M398.086 69.5744V92.6484M398.086 69.5744H428.631M398.086 92.6484V115.722M398.086 92.6484H428.631M398.086 115.722V138.796M398.086 115.722H428.631M398.086 138.796V161.871M398.086 138.796H428.631M398.086 161.871V184.945M398.086 161.871H428.631M398.086 184.945V208.019M398.086 184.945H428.631M398.086 208.019V231.093M398.086 208.019H428.631M398.086 231.093V254.167M398.086 231.093H428.631M398.086 254.167V277.241M398.086 254.167H428.631M398.086 277.241V300.315M398.086 277.241H428.631M398.086 300.315V323.389M398.086 300.315H428.631M398.086 323.389V346.463M398.086 323.389H428.631M398.086 346.463V369.537M398.086 346.463H428.631M398.086 369.537V392.611M398.086 369.537H428.631M398.086 392.611V415.685M398.086 392.611H428.631M398.086 415.685V438.759M398.086 415.685H428.631M398.086 438.759V461.833M398.086 438.759H428.631M398.086 461.833H428.631M428.631 0.352295V23.4263M428.631 0.352295H459.177M428.631 23.4263V46.5004M428.631 23.4263H459.177M428.631 46.5004V69.5744M428.631 46.5004H459.177M428.631 69.5744V92.6484M428.631 69.5744H459.177M428.631 92.6484V115.722M428.631 92.6484H459.177M428.631 115.722V138.796M428.631 115.722H459.177M428.631 138.796V161.871M428.631 138.796H459.177M428.631 161.871V184.945M428.631 161.871H459.177M428.631 184.945V208.019M428.631 184.945H459.177M428.631 208.019V231.093M428.631 208.019H459.177M428.631 231.093V254.167M428.631 231.093H459.177M428.631 254.167V277.241M428.631 254.167H459.177M428.631 277.241V300.315M428.631 277.241H459.177M428.631 300.315V323.389M428.631 300.315H459.177M428.631 323.389V346.463M428.631 323.389H459.177M428.631 346.463V369.537M428.631 346.463H459.177M428.631 369.537V392.611M428.631 369.537H459.177M428.631 392.611V415.685M428.631 392.611H459.177M428.631 415.685V438.759M428.631 415.685H459.177M428.631 438.759V461.833M428.631 438.759H459.177M428.631 461.833H459.177M459.177 0.352295V23.4263M459.177 0.352295H489.722M459.177 23.4263V46.5004M459.177 23.4263H489.722M459.177 46.5004V69.5744M459.177 46.5004H489.722M459.177 69.5744V92.6484M459.177 69.5744H489.722M459.177 92.6484V115.722M459.177 92.6484H489.722M459.177 115.722V138.796M459.177 115.722H489.722M459.177 138.796V161.871M459.177 138.796H489.722M459.177 161.871V184.945M459.177 161.871H489.722M459.177 184.945V208.019M459.177 184.945H489.722M459.177 208.019V231.093M459.177 208.019H489.722M459.177 231.093V254.167M459.177 231.093H489.722M459.177 254.167V277.241M459.177 254.167H489.722M459.177 277.241V300.315M459.177 277.241H489.722M459.177 300.315V323.389M459.177 300.315H489.722M459.177 323.389V346.463M459.177 323.389H489.722M459.177 346.463V369.537M459.177 346.463H489.722M459.177 369.537V392.611M459.177 369.537H489.722M459.177 392.611V415.685M459.177 392.611H489.722M459.177 415.685V438.759M459.177 415.685H489.722M459.177 438.759V461.833M459.177 438.759H489.722M459.177 461.833H489.722M489.722 0.352295V23.4263M489.722 0.352295H520.268M489.722 23.4263V46.5004M489.722 23.4263H520.268M489.722 46.5004V69.5744M489.722 46.5004H520.268M489.722 69.5744V92.6484M489.722 69.5744H520.268M489.722 92.6484V115.722M489.722 92.6484H520.268M489.722 115.722V138.796M489.722 115.722H520.268M489.722 138.796V161.871M489.722 138.796H520.268M489.722 161.871V184.945M489.722 161.871H520.268M489.722 184.945V208.019M489.722 184.945H520.268M489.722 208.019V231.093M489.722 208.019H520.268M489.722 231.093V254.167M489.722 231.093H520.268M489.722 254.167V277.241M489.722 254.167H520.268M489.722 277.241V300.315M489.722 277.241H520.268M489.722 300.315V323.389M489.722 300.315H520.268M489.722 323.389V346.463M489.722 323.389H520.268M489.722 346.463V369.537M489.722 346.463H520.268M489.722 369.537V392.611M489.722 369.537H520.268M489.722 392.611V415.685M489.722 392.611H520.268M489.722 415.685V438.759M489.722 415.685H520.268M489.722 438.759V461.833M489.722 438.759H520.268M489.722 461.833H520.268M520.268 0.352295V23.4263M520.268 0.352295H550.813M520.268 23.4263V46.5004M520.268 23.4263H550.813M520.268 46.5004V69.5744M520.268 46.5004H550.813M520.268 69.5744V92.6484M520.268 69.5744H550.813M520.268 92.6484V115.722M520.268 92.6484H550.813M520.268 115.722V138.796M520.268 115.722H550.813M520.268 138.796V161.871M520.268 138.796H550.813M520.268 161.871V184.945M520.268 161.871H550.813M520.268 184.945V208.019M520.268 184.945H550.813M520.268 208.019V231.093M520.268 208.019H550.813M520.268 231.093V254.167M520.268 231.093H550.813M520.268 254.167V277.241M520.268 254.167H550.813M520.268 277.241V300.315M520.268 277.241H550.813M520.268 300.315V323.389M520.268 300.315H550.813M520.268 323.389V346.463M520.268 323.389H550.813M520.268 346.463V369.537M520.268 346.463H550.813M520.268 369.537V392.611M520.268 369.537H550.813M520.268 392.611V415.685M520.268 392.611H550.813M520.268 415.685V438.759M520.268 415.685H550.813M520.268 438.759V461.833M520.268 438.759H550.813M520.268 461.833H550.813M550.813 0.352295V23.4263M550.813 0.352295H581.359M550.813 23.4263V46.5004M550.813 23.4263H581.359M550.813 46.5004V69.5744M550.813 46.5004H581.359M550.813 69.5744V92.6484M550.813 69.5744H581.359M550.813 92.6484V115.722M550.813 92.6484H581.359M550.813 115.722V138.796M550.813 115.722H581.359M550.813 138.796V161.871M550.813 138.796H581.359M550.813 161.871V184.945M550.813 161.871H581.359M550.813 184.945V208.019M550.813 184.945H581.359M550.813 208.019V231.093M550.813 208.019H581.359M550.813 231.093V254.167M550.813 231.093H581.359M550.813 254.167V277.241M550.813 254.167H581.359M550.813 277.241V300.315M550.813 277.241H581.359M550.813 300.315V323.389M550.813 300.315H581.359M550.813 323.389V346.463M550.813 323.389H581.359M550.813 346.463V369.537M550.813 346.463H581.359M550.813 369.537V392.611M550.813 369.537H581.359M550.813 392.611V415.685M550.813 392.611H581.359M550.813 415.685V438.759M550.813 415.685H581.359M550.813 438.759V461.833M550.813 438.759H581.359M550.813 461.833H581.359M581.359 0.352295V23.4263M581.359 0.352295H611.904M581.359 23.4263V46.5004M581.359 23.4263H611.904M581.359 46.5004V69.5744M581.359 46.5004H611.904M581.359 69.5744V92.6484M581.359 69.5744H611.904M581.359 92.6484V115.722M581.359 92.6484H611.904M581.359 115.722V138.796M581.359 115.722H611.904M581.359 138.796V161.871M581.359 138.796H611.904M581.359 161.871V184.945M581.359 161.871H611.904M581.359 184.945V208.019M581.359 184.945H611.904M581.359 208.019V231.093M581.359 208.019H611.904M581.359 231.093V254.167M581.359 231.093H611.904M581.359 254.167V277.241M581.359 254.167H611.904M581.359 277.241V300.315M581.359 277.241H611.904M581.359 300.315V323.389M581.359 300.315H611.904M581.359 323.389V346.463M581.359 323.389H611.904M581.359 346.463V369.537M581.359 346.463H611.904M581.359 369.537V392.611M581.359 369.537H611.904M581.359 392.611V415.685M581.359 392.611H611.904M581.359 415.685V438.759M581.359 415.685H611.904M581.359 438.759V461.833M581.359 438.759H611.904M581.359 461.833H611.904M611.904 0.352295V23.4263M611.904 0.352295H642.45M611.904 23.4263V46.5004M611.904 23.4263H642.45M611.904 46.5004V69.5744M611.904 46.5004H642.45M611.904 69.5744V92.6484M611.904 69.5744H642.45M611.904 92.6484V115.722M611.904 92.6484H642.45M611.904 115.722V138.796M611.904 115.722H642.45M611.904 138.796V161.871M611.904 138.796H642.45M611.904 161.871V184.945M611.904 161.871H642.45M611.904 184.945V208.019M611.904 184.945H642.45M611.904 208.019V231.093M611.904 208.019H642.45M611.904 231.093V254.167M611.904 231.093H642.45M611.904 254.167V277.241M611.904 254.167H642.45M611.904 277.241V300.315M611.904 277.241H642.45M611.904 300.315V323.389M611.904 300.315H642.45M611.904 323.389V346.463M611.904 323.389H642.45M611.904 346.463V369.537M611.904 346.463H642.45M611.904 369.537V392.611M611.904 369.537H642.45M611.904 392.611V415.685M611.904 392.611H642.45M611.904 415.685V438.759M611.904 415.685H642.45M611.904 438.759V461.833M611.904 438.759H642.45M611.904 461.833H642.45M642.45 0.352295V23.4263M642.45 0.352295H672.995M642.45 23.4263V46.5004M642.45 23.4263H672.995M642.45 46.5004V69.5744M642.45 46.5004H672.995M642.45 69.5744V92.6484M642.45 69.5744H672.995M642.45 92.6484V115.722M642.45 92.6484H672.995M642.45 115.722V138.796M642.45 115.722H672.995M642.45 138.796V161.871M642.45 138.796H672.995M642.45 161.871V184.945M642.45 161.871H672.995M642.45 184.945V208.019M642.45 184.945H672.995M642.45 208.019V231.093M642.45 208.019H672.995M642.45 231.093V254.167M642.45 231.093H672.995M642.45 254.167V277.241M642.45 254.167H672.995M642.45 277.241V300.315M642.45 277.241H672.995M642.45 300.315V323.389M642.45 300.315H672.995M642.45 323.389V346.463M642.45 323.389H672.995M642.45 346.463V369.537M642.45 346.463H672.995M642.45 369.537V392.611M642.45 369.537H672.995M642.45 392.611V415.685M642.45 392.611H672.995M642.45 415.685V438.759M642.45 415.685H672.995M642.45 438.759V461.833M642.45 438.759H672.995M642.45 461.833H672.995M672.995 0.352295V23.4263M672.995 0.352295H703.54M672.995 23.4263V46.5004M672.995 23.4263H703.54M672.995 46.5004V69.5744M672.995 46.5004H703.54M672.995 69.5744V92.6484M672.995 69.5744H703.54M672.995 92.6484V115.722M672.995 92.6484H703.54M672.995 115.722V138.796M672.995 115.722H703.54M672.995 138.796V161.871M672.995 138.796H703.54M672.995 161.871V184.945M672.995 161.871H703.54M672.995 184.945V208.019M672.995 184.945H703.54M672.995 208.019V231.093M672.995 208.019H703.54M672.995 231.093V254.167M672.995 231.093H703.54M672.995 254.167V277.241M672.995 254.167H703.54M672.995 277.241V300.315M672.995 277.241H703.54M672.995 300.315V323.389M672.995 300.315H703.54M672.995 323.389V346.463M672.995 323.389H703.54M672.995 346.463V369.537M672.995 346.463H703.54M672.995 369.537V392.611M672.995 369.537H703.54M672.995 392.611V415.685M672.995 392.611H703.54M672.995 415.685V438.759M672.995 415.685H703.54M672.995 438.759V461.833M672.995 438.759H703.54M672.995 461.833H703.54M703.54 0.352295V23.4263M703.54 0.352295H734.086M703.54 23.4263V46.5004M703.54 23.4263H734.086M703.54 46.5004V69.5744M703.54 46.5004H734.086M703.54 69.5744V92.6484M703.54 69.5744H734.086M703.54 92.6484V115.722M703.54 92.6484H734.086M703.54 115.722V138.796M703.54 115.722H734.086M703.54 138.796V161.871M703.54 138.796H734.086M703.54 161.871V184.945M703.54 161.871H734.086M703.54 184.945V208.019M703.54 184.945H734.086M703.54 208.019V231.093M703.54 208.019H734.086M703.54 231.093V254.167M703.54 231.093H734.086M703.54 254.167V277.241M703.54 254.167H734.086M703.54 277.241V300.315M703.54 277.241H734.086M703.54 300.315V323.389M703.54 300.315H734.086M703.54 323.389V346.463M703.54 323.389H734.086M703.54 346.463V369.537M703.54 346.463H734.086M703.54 369.537V392.611M703.54 369.537H734.086M703.54 392.611V415.685M703.54 392.611H734.086M703.54 415.685V438.759M703.54 415.685H734.086M703.54 438.759V461.833M703.54 438.759H734.086M703.54 461.833H734.086M734.086 0.352295V23.4263M734.086 0.352295H764.631M734.086 23.4263V46.5004M734.086 23.4263H764.631M734.086 46.5004V69.5744M734.086 46.5004H764.631M734.086 69.5744V92.6484M734.086 69.5744H764.631M734.086 92.6484V115.722M734.086 92.6484H764.631M734.086 115.722V138.796M734.086 115.722H764.631M734.086 138.796V161.871M734.086 138.796H764.631M734.086 161.871V184.945M734.086 161.871H764.631M734.086 184.945V208.019M734.086 184.945H764.631M734.086 208.019V231.093M734.086 208.019H764.631M734.086 231.093V254.167M734.086 231.093H764.631M734.086 254.167V277.241M734.086 254.167H764.631M734.086 277.241V300.315M734.086 277.241H764.631M734.086 300.315V323.389M734.086 300.315H764.631M734.086 323.389V346.463M734.086 323.389H764.631M734.086 346.463V369.537M734.086 346.463H764.631M734.086 369.537V392.611M734.086 369.537H764.631M734.086 392.611V415.685M734.086 392.611H764.631M734.086 415.685V438.759M734.086 415.685H764.631M734.086 438.759V461.833M734.086 438.759H764.631M734.086 461.833H764.631M764.631 0.352295V23.4263M764.631 0.352295H795.177M764.631 23.4263V46.5004M764.631 23.4263H795.177M764.631 46.5004V69.5744M764.631 46.5004H795.177M764.631 69.5744V92.6484M764.631 69.5744H795.177M764.631 92.6484V115.722M764.631 92.6484H795.177M764.631 115.722V138.796M764.631 115.722H795.177M764.631 138.796V161.871M764.631 138.796H795.177M764.631 161.871V184.945M764.631 161.871H795.177M764.631 184.945V208.019M764.631 184.945H795.177M764.631 208.019V231.093M764.631 208.019H795.177M764.631 231.093V254.167M764.631 231.093H795.177M764.631 254.167V277.241M764.631 254.167H795.177M764.631 277.241V300.315M764.631 277.241H795.177M764.631 300.315V323.389M764.631 300.315H795.177M764.631 323.389V346.463M764.631 323.389H795.177M764.631 346.463V369.537M764.631 346.463H795.177M764.631 369.537V392.611M764.631 369.537H795.177M764.631 392.611V415.685M764.631 392.611H795.177M764.631 415.685V438.759M764.631 415.685H795.177M764.631 438.759V461.833M764.631 438.759H795.177M764.631 461.833H795.177M795.177 0.352295V23.4263M795.177 0.352295H825.722M795.177 23.4263V46.5004M795.177 23.4263H825.722M795.177 46.5004V69.5744M795.177 46.5004H825.722M795.177 69.5744V92.6484M795.177 69.5744H825.722M795.177 92.6484V115.722M795.177 92.6484H825.722M795.177 115.722V138.796M795.177 115.722H825.722M795.177 138.796V161.871M795.177 138.796H825.722M795.177 161.871V184.945M795.177 161.871H825.722M795.177 184.945V208.019M795.177 184.945H825.722M795.177 208.019V231.093M795.177 208.019H825.722M795.177 231.093V254.167M795.177 231.093H825.722M795.177 254.167V277.241M795.177 254.167H825.722M795.177 277.241V300.315M795.177 277.241H825.722M795.177 300.315V323.389M795.177 300.315H825.722M795.177 323.389V346.463M795.177 323.389H825.722M795.177 346.463V369.537M795.177 346.463H825.722M795.177 369.537V392.611M795.177 369.537H825.722M795.177 392.611V415.685M795.177 392.611H825.722M795.177 415.685V438.759M795.177 415.685H825.722M795.177 438.759V461.833M795.177 438.759H825.722M795.177 461.833H825.722M825.722 0.352295V23.4263M825.722 0.352295H856.268M825.722 23.4263V46.5004M825.722 23.4263H856.268M825.722 46.5004V69.5744M825.722 46.5004H856.268M825.722 69.5744V92.6484M825.722 69.5744H856.268M825.722 92.6484V115.722M825.722 92.6484H856.268M825.722 115.722V138.796M825.722 115.722H856.268M825.722 138.796V161.871M825.722 138.796H856.268M825.722 161.871V184.945M825.722 161.871H856.268M825.722 184.945V208.019M825.722 184.945H856.268M825.722 208.019V231.093M825.722 208.019H856.268M825.722 231.093V254.167M825.722 231.093H856.268M825.722 254.167V277.241M825.722 254.167H856.268M825.722 277.241V300.315M825.722 277.241H856.268M825.722 300.315V323.389M825.722 300.315H856.268M825.722 323.389V346.463M825.722 323.389H856.268M825.722 346.463V369.537M825.722 346.463H856.268M825.722 369.537V392.611M825.722 369.537H856.268M825.722 392.611V415.685M825.722 392.611H856.268M825.722 415.685V438.759M825.722 415.685H856.268M825.722 438.759V461.833M825.722 438.759H856.268M825.722 461.833H856.268M856.268 0.352295V23.4263M856.268 0.352295H886.813M856.268 23.4263V46.5004M856.268 23.4263H886.813M856.268 46.5004V69.5744M856.268 46.5004H886.813M856.268 69.5744V92.6484M856.268 69.5744H886.813M856.268 92.6484V115.722M856.268 92.6484H886.813M856.268 115.722V138.796M856.268 115.722H886.813M856.268 138.796V161.871M856.268 138.796H886.813M856.268 161.871V184.945M856.268 161.871H886.813M856.268 184.945V208.019M856.268 184.945H886.813M856.268 208.019V231.093M856.268 208.019H886.813M856.268 231.093V254.167M856.268 231.093H886.813M856.268 254.167V277.241M856.268 254.167H886.813M856.268 277.241V300.315M856.268 277.241H886.813M856.268 300.315V323.389M856.268 300.315H886.813M856.268 323.389V346.463M856.268 323.389H886.813M856.268 346.463V369.537M856.268 346.463H886.813M856.268 369.537V392.611M856.268 369.537H886.813M856.268 392.611V415.685M856.268 392.611H886.813M856.268 415.685V438.759M856.268 415.685H886.813M856.268 438.759V461.833M856.268 438.759H886.813M856.268 461.833H886.813M886.813 0.352295V23.4263M886.813 0.352295H917.359M886.813 23.4263V46.5004M886.813 23.4263H917.359M886.813 46.5004V69.5744M886.813 46.5004H917.359M886.813 69.5744V92.6484M886.813 69.5744H917.359M886.813 92.6484V115.722M886.813 92.6484H917.359M886.813 115.722V138.796M886.813 115.722H917.359M886.813 138.796V161.871M886.813 138.796H917.359M886.813 161.871V184.945M886.813 161.871H917.359M886.813 184.945V208.019M886.813 184.945H917.359M886.813 208.019V231.093M886.813 208.019H917.359M886.813 231.093V254.167M886.813 231.093H917.359M886.813 254.167V277.241M886.813 254.167H917.359M886.813 277.241V300.315M886.813 277.241H917.359M886.813 300.315V323.389M886.813 300.315H917.359M886.813 323.389V346.463M886.813 323.389H917.359M886.813 346.463V369.537M886.813 346.463H917.359M886.813 369.537V392.611M886.813 369.537H917.359M886.813 392.611V415.685M886.813 392.611H917.359M886.813 415.685V438.759M886.813 415.685H917.359M886.813 438.759V461.833M886.813 438.759H917.359M886.813 461.833H917.359M917.359 0.352295V23.4263M917.359 0.352295H947.904M917.359 23.4263V46.5004M917.359 23.4263H947.904M917.359 46.5004V69.5744M917.359 46.5004H947.904M917.359 69.5744V92.6484M917.359 69.5744H947.904M917.359 92.6484V115.722M917.359 92.6484H947.904M917.359 115.722V138.796M917.359 115.722H947.904M917.359 138.796V161.871M917.359 138.796H947.904M917.359 161.871V184.945M917.359 161.871H947.904M917.359 184.945V208.019M917.359 184.945H947.904M917.359 208.019V231.093M917.359 208.019H947.904M917.359 231.093V254.167M917.359 231.093H947.904M917.359 254.167V277.241M917.359 254.167H947.904M917.359 277.241V300.315M917.359 277.241H947.904M917.359 300.315V323.389M917.359 300.315H947.904M917.359 323.389V346.463M917.359 323.389H947.904M917.359 346.463V369.537M917.359 346.463H947.904M917.359 369.537V392.611M917.359 369.537H947.904M917.359 392.611V415.685M917.359 392.611H947.904M917.359 415.685V438.759M917.359 415.685H947.904M917.359 438.759V461.833M917.359 438.759H947.904M917.359 461.833H947.904M947.904 0.352295V23.4263M947.904 0.352295H978.45M947.904 23.4263V46.5004M947.904 23.4263H978.45M947.904 46.5004V69.5744M947.904 46.5004H978.45M947.904 69.5744V92.6484M947.904 69.5744H978.45M947.904 92.6484V115.722M947.904 92.6484H978.45M947.904 115.722V138.796M947.904 115.722H978.45M947.904 138.796V161.871M947.904 138.796H978.45M947.904 161.871V184.945M947.904 161.871H978.45M947.904 184.945V208.019M947.904 184.945H978.45M947.904 208.019V231.093M947.904 208.019H978.45M947.904 231.093V254.167M947.904 231.093H978.45M947.904 254.167V277.241M947.904 254.167H978.45M947.904 277.241V300.315M947.904 277.241H978.45M947.904 300.315V323.389M947.904 300.315H978.45M947.904 323.389V346.463M947.904 323.389H978.45M947.904 346.463V369.537M947.904 346.463H978.45M947.904 369.537V392.611M947.904 369.537H978.45M947.904 392.611V415.685M947.904 392.611H978.45M947.904 415.685V438.759M947.904 415.685H978.45M947.904 438.759V461.833M947.904 438.759H978.45M947.904 461.833H978.45M978.45 0.352295V23.4263M978.45 0.352295H1008.99M978.45 23.4263V46.5004M978.45 23.4263H1008.99M978.45 46.5004V69.5744M978.45 46.5004H1008.99M978.45 69.5744V92.6484M978.45 69.5744H1008.99M978.45 92.6484V115.722M978.45 92.6484H1008.99M978.45 115.722V138.796M978.45 115.722H1008.99M978.45 138.796V161.871M978.45 138.796H1008.99M978.45 161.871V184.945M978.45 161.871H1008.99M978.45 184.945V208.019M978.45 184.945H1008.99M978.45 208.019V231.093M978.45 208.019H1008.99M978.45 231.093V254.167M978.45 231.093H1008.99M978.45 254.167V277.241M978.45 254.167H1008.99M978.45 277.241V300.315M978.45 277.241H1008.99M978.45 300.315V323.389M978.45 300.315H1008.99M978.45 323.389V346.463M978.45 323.389H1008.99M978.45 346.463V369.537M978.45 346.463H1008.99M978.45 369.537V392.611M978.45 369.537H1008.99M978.45 392.611V415.685M978.45 392.611H1008.99M978.45 415.685V438.759M978.45 415.685H1008.99M978.45 438.759V461.833M978.45 438.759H1008.99M978.45 461.833H1008.99M1008.99 0.352295V23.4263M1008.99 0.352295H1039.54M1008.99 23.4263V46.5004M1008.99 23.4263H1039.54M1008.99 46.5004V69.5744M1008.99 46.5004H1039.54M1008.99 69.5744V92.6484M1008.99 69.5744H1039.54M1008.99 92.6484V115.722M1008.99 92.6484H1039.54M1008.99 115.722V138.796M1008.99 115.722H1039.54M1008.99 138.796V161.871M1008.99 138.796H1039.54M1008.99 161.871V184.945M1008.99 161.871H1039.54M1008.99 184.945V208.019M1008.99 184.945H1039.54M1008.99 208.019V231.093M1008.99 208.019H1039.54M1008.99 231.093V254.167M1008.99 231.093H1039.54M1008.99 254.167V277.241M1008.99 254.167H1039.54M1008.99 277.241V300.315M1008.99 277.241H1039.54M1008.99 300.315V323.389M1008.99 300.315H1039.54M1008.99 323.389V346.463M1008.99 323.389H1039.54M1008.99 346.463V369.537M1008.99 346.463H1039.54M1008.99 369.537V392.611M1008.99 369.537H1039.54M1008.99 392.611V415.685M1008.99 392.611H1039.54M1008.99 415.685V438.759M1008.99 415.685H1039.54M1008.99 438.759V461.833M1008.99 438.759H1039.54M1008.99 461.833H1039.54M1039.54 0.352295V23.4263M1039.54 0.352295H1070.09M1039.54 23.4263V46.5004M1039.54 23.4263H1070.09M1039.54 46.5004V69.5744M1039.54 46.5004H1070.09M1039.54 69.5744V92.6484M1039.54 69.5744H1070.09M1039.54 92.6484V115.722M1039.54 92.6484H1070.09M1039.54 115.722V138.796M1039.54 115.722H1070.09M1039.54 138.796V161.871M1039.54 138.796H1070.09M1039.54 161.871V184.945M1039.54 161.871H1070.09M1039.54 184.945V208.019M1039.54 184.945H1070.09M1039.54 208.019V231.093M1039.54 208.019H1070.09M1039.54 231.093V254.167M1039.54 231.093H1070.09M1039.54 254.167V277.241M1039.54 254.167H1070.09M1039.54 277.241V300.315M1039.54 277.241H1070.09M1039.54 300.315V323.389M1039.54 300.315H1070.09M1039.54 323.389V346.463M1039.54 323.389H1070.09M1039.54 346.463V369.537M1039.54 346.463H1070.09M1039.54 369.537V392.611M1039.54 369.537H1070.09M1039.54 392.611V415.685M1039.54 392.611H1070.09M1039.54 415.685V438.759M1039.54 415.685H1070.09M1039.54 438.759V461.833M1039.54 438.759H1070.09M1039.54 461.833H1070.09M1070.09 0.352295V23.4263M1070.09 0.352295H1100.63M1070.09 23.4263V46.5004M1070.09 23.4263H1100.63M1070.09 46.5004V69.5744M1070.09 46.5004H1100.63M1070.09 69.5744V92.6484M1070.09 69.5744H1100.63M1070.09 92.6484V115.722M1070.09 92.6484H1100.63M1070.09 115.722V138.796M1070.09 115.722H1100.63M1070.09 138.796V161.871M1070.09 138.796H1100.63M1070.09 161.871V184.945M1070.09 161.871H1100.63M1070.09 184.945V208.019M1070.09 184.945H1100.63M1070.09 208.019V231.093M1070.09 208.019H1100.63M1070.09 231.093V254.167M1070.09 231.093H1100.63M1070.09 254.167V277.241M1070.09 254.167H1100.63M1070.09 277.241V300.315M1070.09 277.241H1100.63M1070.09 300.315V323.389M1070.09 300.315H1100.63M1070.09 323.389V346.463M1070.09 323.389H1100.63M1070.09 346.463V369.537M1070.09 346.463H1100.63M1070.09 369.537V392.611M1070.09 369.537H1100.63M1070.09 392.611V415.685M1070.09 392.611H1100.63M1070.09 415.685V438.759M1070.09 415.685H1100.63M1070.09 438.759V461.833M1070.09 438.759H1100.63M1070.09 461.833H1100.63M1100.63 0.352295V23.4263M1100.63 0.352295H1131.18M1100.63 23.4263V46.5004M1100.63 23.4263H1131.18M1100.63 46.5004V69.5744M1100.63 46.5004H1131.18M1100.63 69.5744V92.6484M1100.63 69.5744H1131.18M1100.63 92.6484V115.722M1100.63 92.6484H1131.18M1100.63 115.722V138.796M1100.63 115.722H1131.18M1100.63 138.796V161.871M1100.63 138.796H1131.18M1100.63 161.871V184.945M1100.63 161.871H1131.18M1100.63 184.945V208.019M1100.63 184.945H1131.18M1100.63 208.019V231.093M1100.63 208.019H1131.18M1100.63 231.093V254.167M1100.63 231.093H1131.18M1100.63 254.167V277.241M1100.63 254.167H1131.18M1100.63 277.241V300.315M1100.63 277.241H1131.18M1100.63 300.315V323.389M1100.63 300.315H1131.18M1100.63 323.389V346.463M1100.63 323.389H1131.18M1100.63 346.463V369.537M1100.63 346.463H1131.18M1100.63 369.537V392.611M1100.63 369.537H1131.18M1100.63 392.611V415.685M1100.63 392.611H1131.18M1100.63 415.685V438.759M1100.63 415.685H1131.18M1100.63 438.759V461.833M1100.63 438.759H1131.18M1100.63 461.833H1131.18M1131.18 0.352295V23.4263M1131.18 0.352295H1161.72M1131.18 23.4263V46.5004M1131.18 23.4263H1161.72M1131.18 46.5004V69.5744M1131.18 46.5004H1161.72M1131.18 69.5744V92.6484M1131.18 69.5744H1161.72M1131.18 92.6484V115.722M1131.18 92.6484H1161.72M1131.18 115.722V138.796M1131.18 115.722H1161.72M1131.18 138.796V161.871M1131.18 138.796H1161.72M1131.18 161.871V184.945M1131.18 161.871H1161.72M1131.18 184.945V208.019M1131.18 184.945H1161.72M1131.18 208.019V231.093M1131.18 208.019H1161.72M1131.18 231.093V254.167M1131.18 231.093H1161.72M1131.18 254.167V277.241M1131.18 254.167H1161.72M1131.18 277.241V300.315M1131.18 277.241H1161.72M1131.18 300.315V323.389M1131.18 300.315H1161.72M1131.18 323.389V346.463M1131.18 323.389H1161.72M1131.18 346.463V369.537M1131.18 346.463H1161.72M1131.18 369.537V392.611M1131.18 369.537H1161.72M1131.18 392.611V415.685M1131.18 392.611H1161.72M1131.18 415.685V438.759M1131.18 415.685H1161.72M1131.18 438.759V461.833M1131.18 438.759H1161.72M1131.18 461.833H1161.72M1161.72 0.352295V23.4263M1161.72 0.352295H1192.27M1161.72 23.4263V46.5004M1161.72 23.4263H1192.27M1161.72 46.5004V69.5744M1161.72 46.5004H1192.27M1161.72 69.5744V92.6484M1161.72 69.5744H1192.27M1161.72 92.6484V115.722M1161.72 92.6484H1192.27M1161.72 115.722V138.796M1161.72 115.722H1192.27M1161.72 138.796V161.871M1161.72 138.796H1192.27M1161.72 161.871V184.945M1161.72 161.871H1192.27M1161.72 184.945V208.019M1161.72 184.945H1192.27M1161.72 208.019V231.093M1161.72 208.019H1192.27M1161.72 231.093V254.167M1161.72 231.093H1192.27M1161.72 254.167V277.241M1161.72 254.167H1192.27M1161.72 277.241V300.315M1161.72 277.241H1192.27M1161.72 300.315V323.389M1161.72 300.315H1192.27M1161.72 323.389V346.463M1161.72 323.389H1192.27M1161.72 346.463V369.537M1161.72 346.463H1192.27M1161.72 369.537V392.611M1161.72 369.537H1192.27M1161.72 392.611V415.685M1161.72 392.611H1192.27M1161.72 415.685V438.759M1161.72 415.685H1192.27M1161.72 438.759V461.833M1161.72 438.759H1192.27M1161.72 461.833H1192.27M1192.27 0.352295V23.4263M1192.27 0.352295H1222.81M1192.27 23.4263V46.5004M1192.27 23.4263H1222.81M1192.27 46.5004V69.5744M1192.27 46.5004H1222.81M1192.27 69.5744V92.6484M1192.27 69.5744H1222.81M1192.27 92.6484V115.722M1192.27 92.6484H1222.81M1192.27 115.722V138.796M1192.27 115.722H1222.81M1192.27 138.796V161.871M1192.27 138.796H1222.81M1192.27 161.871V184.945M1192.27 161.871H1222.81M1192.27 184.945V208.019M1192.27 184.945H1222.81M1192.27 208.019V231.093M1192.27 208.019H1222.81M1192.27 231.093V254.167M1192.27 231.093H1222.81M1192.27 254.167V277.241M1192.27 254.167H1222.81M1192.27 277.241V300.315M1192.27 277.241H1222.81M1192.27 300.315V323.389M1192.27 300.315H1222.81M1192.27 323.389V346.463M1192.27 323.389H1222.81M1192.27 346.463V369.537M1192.27 346.463H1222.81M1192.27 369.537V392.611M1192.27 369.537H1222.81M1192.27 392.611V415.685M1192.27 392.611H1222.81M1192.27 415.685V438.759M1192.27 415.685H1222.81M1192.27 438.759V461.833M1192.27 438.759H1222.81M1192.27 461.833H1222.81M1222.81 0.352295V23.4263M1222.81 0.352295H1253.36M1222.81 23.4263V46.5004M1222.81 23.4263H1253.36M1222.81 46.5004V69.5744M1222.81 46.5004H1253.36M1222.81 69.5744V92.6484M1222.81 69.5744H1253.36M1222.81 92.6484V115.722M1222.81 92.6484H1253.36M1222.81 115.722V138.796M1222.81 115.722H1253.36M1222.81 138.796V161.871M1222.81 138.796H1253.36M1222.81 161.871V184.945M1222.81 161.871H1253.36M1222.81 184.945V208.019M1222.81 184.945H1253.36M1222.81 208.019V231.093M1222.81 208.019H1253.36M1222.81 231.093V254.167M1222.81 231.093H1253.36M1222.81 254.167V277.241M1222.81 254.167H1253.36M1222.81 277.241V300.315M1222.81 277.241H1253.36M1222.81 300.315V323.389M1222.81 300.315H1253.36M1222.81 323.389V346.463M1222.81 323.389H1253.36M1222.81 346.463V369.537M1222.81 346.463H1253.36M1222.81 369.537V392.611M1222.81 369.537H1253.36M1222.81 392.611V415.685M1222.81 392.611H1253.36M1222.81 415.685V438.759M1222.81 415.685H1253.36M1222.81 438.759V461.833M1222.81 438.759H1253.36M1222.81 461.833H1253.36M1253.36 0.352295V23.4263M1253.36 0.352295H1283.9M1253.36 23.4263V46.5004M1253.36 23.4263H1283.9M1253.36 46.5004V69.5744M1253.36 46.5004H1283.9M1253.36 69.5744V92.6484M1253.36 69.5744H1283.9M1253.36 92.6484V115.722M1253.36 92.6484H1283.9M1253.36 115.722V138.796M1253.36 115.722H1283.9M1253.36 138.796V161.871M1253.36 138.796H1283.9M1253.36 161.871V184.945M1253.36 161.871H1283.9M1253.36 184.945V208.019M1253.36 184.945H1283.9M1253.36 208.019V231.093M1253.36 208.019H1283.9M1253.36 231.093V254.167M1253.36 231.093H1283.9M1253.36 254.167V277.241M1253.36 254.167H1283.9M1253.36 277.241V300.315M1253.36 277.241H1283.9M1253.36 300.315V323.389M1253.36 300.315H1283.9M1253.36 323.389V346.463M1253.36 323.389H1283.9M1253.36 346.463V369.537M1253.36 346.463H1283.9M1253.36 369.537V392.611M1253.36 369.537H1283.9M1253.36 392.611V415.685M1253.36 392.611H1283.9M1253.36 415.685V438.759M1253.36 415.685H1283.9M1253.36 438.759V461.833M1253.36 438.759H1283.9M1253.36 461.833H1283.9M1283.9 0.352295V23.4263M1283.9 0.352295H1314.45M1283.9 23.4263V46.5004M1283.9 23.4263H1314.45M1283.9 46.5004V69.5744M1283.9 46.5004H1314.45M1283.9 69.5744V92.6484M1283.9 69.5744H1314.45M1283.9 92.6484V115.722M1283.9 92.6484H1314.45M1283.9 115.722V138.796M1283.9 115.722H1314.45M1283.9 138.796V161.871M1283.9 138.796H1314.45M1283.9 161.871V184.945M1283.9 161.871H1314.45M1283.9 184.945V208.019M1283.9 184.945H1314.45M1283.9 208.019V231.093M1283.9 208.019H1314.45M1283.9 231.093V254.167M1283.9 231.093H1314.45M1283.9 254.167V277.241M1283.9 254.167H1314.45M1283.9 277.241V300.315M1283.9 277.241H1314.45M1283.9 300.315V323.389M1283.9 300.315H1314.45M1283.9 323.389V346.463M1283.9 323.389H1314.45M1283.9 346.463V369.537M1283.9 346.463H1314.45M1283.9 369.537V392.611M1283.9 369.537H1314.45M1283.9 392.611V415.685M1283.9 392.611H1314.45M1283.9 415.685V438.759M1283.9 415.685H1314.45M1283.9 438.759V461.833M1283.9 438.759H1314.45M1283.9 461.833H1314.45M1314.45 0.352295V23.4263M1314.45 0.352295H1344.99V23.4263M1314.45 23.4263V46.5004M1314.45 23.4263H1344.99M1314.45 46.5004V69.5744M1314.45 46.5004H1344.99M1314.45 69.5744V92.6484M1314.45 69.5744H1344.99M1314.45 92.6484V115.722M1314.45 92.6484H1344.99M1314.45 115.722V138.796M1314.45 115.722H1344.99M1314.45 138.796V161.871M1314.45 138.796H1344.99M1314.45 161.871V184.945M1314.45 161.871H1344.99M1314.45 184.945V208.019M1314.45 184.945H1344.99M1314.45 208.019V231.093M1314.45 208.019H1344.99M1314.45 231.093V254.167M1314.45 231.093H1344.99M1314.45 254.167V277.241M1314.45 254.167H1344.99M1314.45 277.241V300.315M1314.45 277.241H1344.99M1314.45 300.315V323.389M1314.45 300.315H1344.99M1314.45 323.389V346.463M1314.45 323.389H1344.99M1314.45 346.463V369.537M1314.45 346.463H1344.99M1314.45 369.537V392.611M1314.45 369.537H1344.99M1314.45 392.611V415.685M1314.45 392.611H1344.99M1314.45 415.685V438.759M1314.45 415.685H1344.99M1314.45 438.759V461.833M1314.45 438.759H1344.99M1314.45 461.833H1344.99V438.759M1344.99 23.4263V46.5004M1344.99 46.5004V69.5744M1344.99 69.5744V92.6484M1344.99 92.6484V115.722M1344.99 115.722V138.796M1344.99 138.796V161.871M1344.99 161.871V184.945M1344.99 184.945V208.019M1344.99 208.019V231.093M1344.99 231.093V254.167M1344.99 254.167V277.241M1344.99 277.241V300.315M1344.99 300.315V323.389M1344.99 323.389V346.463M1344.99 346.463V369.537M1344.99 369.537V392.611M1344.99 392.611V415.685M1344.99 415.685V438.759" stroke="url(#paint0_radial_621_1216)" stroke-opacity="0.45" stroke-width="0.441687"/>
</g>
<defs>
<radialGradient id="paint0_radial_621_1216" cx="0" cy="0" r="1" gradientUnits="userSpaceOnUse" gradientTransform="translate(672.995 231.093) rotate(90) scale(230.74 542.652)">
<stop offset="0.57" stop-color="#304F21" stop-opacity="0.35"/>
<stop offset="1" stop-color="#304F21"/>
</radialGradient>
</defs>
</svg>
