<svg width="21" height="21" viewBox="0 0 21 21" fill="none" xmlns="http://www.w3.org/2000/svg">
<path d="M2.04834 8.76482V12.0982C2.04834 14.4552 2.04834 15.6337 2.78057 16.3659C2.96169 16.547 3.17011 16.6833 3.41691 16.7859C3.41131 16.7489 3.40602 16.7117 3.40102 16.6745C3.29822 15.9099 3.29827 14.9552 3.29834 13.8471L3.29834 7.09811L3.29834 7.01582C3.29827 5.90771 3.29822 4.95294 3.40102 4.18837C3.40602 4.15118 3.4113 4.11406 3.41689 4.07703C3.1701 4.17963 2.96168 4.31594 2.78057 4.49705C2.04834 5.22928 2.04834 6.4078 2.04834 8.76482Z" fill="#304F21"/>
<path d="M18.715 8.76482V12.0982C18.715 14.4552 18.715 15.6337 17.9828 16.3659C17.8017 16.547 17.5932 16.6833 17.3464 16.7859C17.352 16.7489 17.3573 16.7117 17.3623 16.6745C17.4651 15.9099 17.4651 14.9552 17.465 13.8471V7.01583C17.4651 5.90772 17.4651 4.95295 17.3623 4.18837C17.3573 4.15118 17.352 4.11406 17.3465 4.07703C17.5932 4.17963 17.8017 4.31594 17.9828 4.49705C18.715 5.22928 18.715 6.4078 18.715 8.76482Z" fill="#304F21"/>
<path fill-rule="evenodd" clip-rule="evenodd" d="M5.28057 2.83001C4.54834 3.56224 4.54834 4.74076 4.54834 7.09778V13.7644C4.54834 16.1215 4.54834 17.3 5.28057 18.0322C6.01281 18.7644 7.19132 18.7644 9.54834 18.7644H11.215C13.572 18.7644 14.7505 18.7644 15.4828 18.0322C16.215 17.3 16.215 16.1215 16.215 13.7644V7.09778C16.215 4.74076 16.215 3.56224 15.4828 2.83001C14.7505 2.09778 13.572 2.09778 11.215 2.09778H9.54834C7.19132 2.09778 6.01281 2.09778 5.28057 2.83001ZM7.25667 14.5978C7.25667 14.2526 7.5365 13.9728 7.88167 13.9728H10.3817C10.7269 13.9728 11.0067 14.2526 11.0067 14.5978C11.0067 14.943 10.7269 15.2228 10.3817 15.2228H7.88167C7.5365 15.2228 7.25667 14.943 7.25667 14.5978ZM7.88167 10.6394C7.5365 10.6394 7.25667 10.9193 7.25667 11.2644C7.25667 11.6096 7.5365 11.8894 7.88167 11.8894H12.8817C13.2269 11.8894 13.5067 11.6096 13.5067 11.2644C13.5067 10.9193 13.2269 10.6394 12.8817 10.6394H7.88167ZM7.25667 7.93111C7.25667 7.58593 7.5365 7.30611 7.88167 7.30611H12.8817C13.2269 7.30611 13.5067 7.58593 13.5067 7.93111C13.5067 8.27629 13.2269 8.55611 12.8817 8.55611H7.88167C7.5365 8.55611 7.25667 8.27629 7.25667 7.93111Z" fill="#304F21"/>
</svg>
