<svg width="21" height="21" viewBox="0 0 21 21" fill="none" xmlns="http://www.w3.org/2000/svg">
<path d="M14.5109 14.1822C14.6567 14.0685 14.789 13.9362 15.0535 13.6717L18.3513 10.3738C18.4311 10.2941 18.3946 10.1568 18.288 10.1198C17.8988 9.98477 17.3924 9.73121 16.9187 9.25753C16.445 8.78385 16.1915 8.27748 16.0564 7.88821C16.0195 7.78168 15.8821 7.74519 15.8024 7.82492L12.5046 11.1228C12.24 11.3873 12.1078 11.5196 11.994 11.6654C11.8598 11.8374 11.7448 12.0236 11.6509 12.2205C11.5714 12.3875 11.5122 12.5649 11.3939 12.9198L11.2411 13.3784L10.998 14.1076L10.7701 14.7914C10.7119 14.966 10.7573 15.1586 10.8875 15.2888C11.0177 15.4189 11.2102 15.4644 11.3849 15.4062L12.0686 15.1783L12.7978 14.9352L13.2564 14.7823L13.2564 14.7823C13.6113 14.664 13.7888 14.6049 13.9557 14.5253C14.1527 14.4314 14.3388 14.3164 14.5109 14.1822Z" fill="#304F21"/>
<path d="M19.3839 9.34128C20.0877 8.63742 20.0877 7.49623 19.3839 6.79236C18.68 6.0885 17.5388 6.0885 16.835 6.79236L16.7289 6.89839C16.6266 7.0007 16.5803 7.1436 16.6058 7.28601C16.6219 7.3756 16.6517 7.50657 16.7059 7.66286C16.8144 7.97541 17.0192 8.3857 17.4049 8.7714C17.7905 9.15709 18.2008 9.36187 18.5134 9.4703C18.6697 9.52453 18.8006 9.55433 18.8902 9.57041C19.0326 9.59597 19.1756 9.54962 19.2779 9.44731L19.3839 9.34128Z" fill="#304F21"/>
<path fill-rule="evenodd" clip-rule="evenodd" d="M4.22143 3.07415C3.24512 4.05046 3.24512 5.62181 3.24512 8.76451V12.0978C3.24512 15.2405 3.24512 16.8119 4.22143 17.7882C5.19774 18.7645 6.76909 18.7645 9.91178 18.7645H11.5785C14.7211 18.7645 16.2925 18.7645 17.2688 17.7882C18.2295 16.8275 18.2449 15.2908 18.2451 12.2479L15.8965 14.5965C15.6717 14.8215 15.4876 15.0057 15.2797 15.1679C15.036 15.3579 14.7725 15.5208 14.4935 15.6538C14.2555 15.7672 14.0083 15.8495 13.7066 15.9499L11.7802 16.5921C11.1564 16.8 10.4686 16.6377 10.0036 16.1727C9.53867 15.7077 9.37631 15.0199 9.58425 14.3961L9.81216 13.7124L10.2081 12.5246L10.2264 12.4698C10.3268 12.168 10.4091 11.9208 10.5226 11.6828C10.6555 11.4039 10.8184 11.1403 11.0084 10.8967C11.1706 10.6887 11.3549 10.5046 11.5799 10.2798L14.9186 6.94108L15.8451 6.01454L15.9511 5.90852C16.5473 5.31235 17.3287 5.01435 18.1101 5.01451C17.984 4.15572 17.7402 3.54557 17.2688 3.07415C16.2925 2.09784 14.7211 2.09784 11.5785 2.09784H9.91178C6.76909 2.09784 5.19774 2.09784 4.22143 3.07415ZM6.78678 7.93117C6.78678 7.58599 7.06661 7.30617 7.41178 7.30617H12.8285C13.1736 7.30617 13.4535 7.58599 13.4535 7.93117C13.4535 8.27635 13.1736 8.55617 12.8285 8.55617H7.41178C7.06661 8.55617 6.78678 8.27635 6.78678 7.93117ZM6.78678 11.2645C6.78678 10.9193 7.06661 10.6395 7.41178 10.6395H9.49512C9.8403 10.6395 10.1201 10.9193 10.1201 11.2645C10.1201 11.6097 9.8403 11.8895 9.49512 11.8895H7.41178C7.06661 11.8895 6.78678 11.6097 6.78678 11.2645ZM6.78678 14.5978C6.78678 14.2527 7.06661 13.9728 7.41178 13.9728H8.66178C9.00696 13.9728 9.28678 14.2527 9.28678 14.5978C9.28678 14.943 9.00696 15.2228 8.66178 15.2228H7.41178C7.06661 15.2228 6.78678 14.943 6.78678 14.5978Z" fill="#304F21"/>
</svg>
