<svg width="21" height="21" viewBox="0 0 21 21" fill="none" xmlns="http://www.w3.org/2000/svg">
<path d="M18.6733 4.24786C18.6733 5.62858 17.5541 6.74786 16.1733 6.74786C14.7926 6.74786 13.6733 5.62858 13.6733 4.24786C13.6733 2.86715 14.7926 1.74786 16.1733 1.74786C17.5541 1.74786 18.6733 2.86715 18.6733 4.24786Z" fill="#304F21"/>
<path fill-rule="evenodd" clip-rule="evenodd" d="M13.3499 1.77975C12.4983 1.74786 11.5056 1.74786 10.3399 1.74786C6.41155 1.74786 4.44737 1.74786 3.22698 2.96825C2.00659 4.18864 2.00659 6.15283 2.00659 10.0812C2.00659 14.0096 2.00659 15.9738 3.22698 17.1941C4.44737 18.4145 6.41155 18.4145 10.3399 18.4145C14.2683 18.4145 16.2325 18.4145 17.4529 17.1941C18.6733 15.9738 18.6733 14.0096 18.6733 10.0812C18.6733 8.91556 18.6733 7.92286 18.6414 7.07121C17.9819 7.64821 17.1184 7.99786 16.1733 7.99786C14.1022 7.99786 12.4233 6.31893 12.4233 4.24786C12.4233 3.30273 12.7729 2.43926 13.3499 1.77975ZM14.9067 7.93439C15.1719 8.15537 15.2077 8.54947 14.9867 8.81465L13.4627 10.6435C13.189 10.972 12.9422 11.2682 12.7117 11.4763C12.4609 11.7028 12.1451 11.9045 11.7288 11.9045C11.3126 11.9045 10.9967 11.7028 10.7459 11.4763C10.5154 11.2682 10.2687 10.972 9.99493 10.6435L9.75127 10.3511C9.44227 9.9803 9.25252 9.75495 9.0962 9.61379C9.02371 9.54833 8.9807 9.52223 8.96009 9.51226C8.9559 9.51023 8.95292 9.50901 8.95104 9.50831L8.94762 9.50969L8.94198 9.51226C8.92137 9.52223 8.87837 9.54833 8.80587 9.61379C8.64955 9.75495 8.4598 9.9803 8.15081 10.3511L6.6534 12.148C6.43242 12.4132 6.03832 12.449 5.77314 12.228C5.50797 12.007 5.47214 11.6129 5.69312 11.3477L7.21715 9.51891C7.49087 9.19037 7.73763 8.8942 7.96813 8.68606C8.21891 8.4596 8.5348 8.25791 8.95104 8.25791C9.36728 8.25791 9.68316 8.4596 9.93395 8.68606C10.1644 8.8942 10.4112 9.19037 10.6849 9.5189L10.9286 9.81131C11.2376 10.1821 11.4273 10.4074 11.5837 10.5486C11.6561 10.6141 11.6991 10.6402 11.7198 10.6501L11.7224 10.6514C11.7252 10.6527 11.7288 10.6541 11.7288 10.6541C11.7307 10.6534 11.7337 10.6522 11.7379 10.6501C11.7585 10.6402 11.8015 10.6141 11.874 10.5486C12.0303 10.4074 12.2201 10.1821 12.529 9.81131L14.0265 8.01442C14.2474 7.74924 14.6415 7.71341 14.9067 7.93439Z" fill="#304F21"/>
</svg>
