<svg width="32" height="33" viewBox="0 0 32 33" fill="none" xmlns="http://www.w3.org/2000/svg">
<path d="M9.66427 0.939411L12.4469 3.58288C13.4904 4.55679 14.0469 5.87854 14.0469 7.33941C14.0469 8.73071 14.6034 10.0525 15.5773 11.0264C15.7352 11.1843 16.0044 11.1175 16.0702 10.9042L19.1251 1.00897" fill="white"/>
<path d="M0.203677 10.1916L4.02976 10.0524C5.42107 9.98287 6.81237 10.5394 7.78628 11.5133C8.76019 12.4872 10.0819 12.9742 11.4732 12.9742C11.6932 12.9742 11.8333 12.7392 11.7288 12.5457L6.81237 3.44374" fill="white"/>
<path d="M0.203815 23.409L2.77772 20.6264C3.75164 19.5829 5.07338 18.9568 6.46468 18.9568C7.85599 18.9568 9.10816 18.3307 10.0821 17.3568C10.2382 17.2007 10.1693 16.9343 9.95704 16.8734L-0.00488281 14.0177" fill="white"/>
<path d="M9.66467 32.5916L9.45599 28.7655C9.38642 27.3742 9.87338 25.9829 10.8473 24.9394C11.7516 23.9655 12.3082 22.5742 12.2386 21.2524C12.2386 21.035 12.0041 20.8983 11.8148 21.0054L2.77772 26.122" fill="white"/>
<path d="M22.8817 32.3133L20.0295 29.809C18.986 28.9046 18.3599 27.5829 18.2904 26.122C18.2208 24.7307 17.5947 23.4785 16.6208 22.5046C16.4665 22.3503 16.2029 22.4213 16.147 22.6323L13.4904 32.6611" fill="white"/>
<path d="M31.9254 22.6437L28.0993 22.922C26.708 23.0611 25.3167 22.5742 24.2732 21.6002C23.2297 20.6959 21.908 20.2089 20.5167 20.2785C20.3021 20.2785 20.1694 20.5124 20.2794 20.6966L25.595 29.6002" fill="white"/>
<path d="M31.2993 9.49592L28.8645 12.4177C27.9602 13.4611 26.6384 14.1568 25.2471 14.2264C23.8558 14.2959 22.6037 14.922 21.6993 15.9655C21.57 16.1271 21.6531 16.3683 21.8545 16.416L31.995 18.8177" fill="white"/>
<path d="M21.4906 0.661133L21.8384 4.48722C21.9776 5.87852 21.5602 7.26983 20.5863 8.38287C19.6819 9.42635 19.2645 10.7481 19.3341 12.1394C19.3668 12.3683 19.6243 12.4876 19.8201 12.3645L28.5863 6.85244" fill="white"/>
</svg>
