<svg width="20" height="21" viewBox="0 0 20 21" fill="none" xmlns="http://www.w3.org/2000/svg">
<path d="M13.3285 5.08114C13.3285 6.92209 11.8361 8.41447 9.9952 8.41447C8.15425 8.41447 6.66187 6.92209 6.66187 5.08114C6.66187 3.24019 8.15425 1.7478 9.9952 1.7478C11.8361 1.7478 13.3285 3.24019 13.3285 5.08114Z" fill="#304F21"/>
<path fill-rule="evenodd" clip-rule="evenodd" d="M13.745 18.4145C12.3701 18.4145 11.6826 18.4145 11.2555 17.9874C10.8284 17.5602 10.8284 16.8728 10.8284 15.4978C10.8284 14.1229 10.8284 13.4354 11.2555 13.0083C11.6826 12.5812 12.3701 12.5812 13.745 12.5812C15.12 12.5812 15.8074 12.5812 16.2346 13.0083C16.6617 13.4354 16.6617 14.1229 16.6617 15.4978C16.6617 16.8728 16.6617 17.5602 16.2346 17.9874C15.8074 18.4145 15.12 18.4145 13.745 18.4145ZM15.3851 14.8694C15.5749 14.6795 15.5749 14.3717 15.3851 14.1819C15.1952 13.9921 14.8874 13.9921 14.6976 14.1819L13.0969 15.7826L12.7925 15.4782C12.6026 15.2883 12.2948 15.2883 12.105 15.4782C11.9152 15.668 11.9152 15.9758 12.105 16.1657L12.7532 16.8138C12.943 17.0036 13.2508 17.0036 13.4406 16.8138L15.3851 14.8694Z" fill="#304F21"/>
<path opacity="0.5" d="M12.0595 18.3486C11.4544 18.3919 10.7697 18.4146 9.99504 18.4146C3.32837 18.4146 3.32837 16.7356 3.32837 14.6646C3.32837 12.5935 6.31314 10.9146 9.99504 10.9146C12.3955 10.9146 14.4997 11.6282 15.6736 12.6989C15.2434 12.5812 14.6398 12.5812 13.745 12.5812C12.3701 12.5812 11.6826 12.5812 11.2555 13.0084C10.8284 13.4355 10.8284 14.123 10.8284 15.4979C10.8284 16.8728 10.8284 17.5603 11.2555 17.9874C11.4534 18.1854 11.7073 18.2916 12.0595 18.3486Z" fill="#304F21"/>
</svg>
